<?xml version="1.0" standalone="no"?>
<!DOCTYPE svg PUBLIC "-//W3C//DTD SVG 20010904//EN"
 "http://www.w3.org/TR/2001/REC-SVG-20010904/DTD/svg10.dtd">
<svg version="1.0" xmlns="http://www.w3.org/2000/svg"
 width="1063.000000pt" height="865.000000pt" viewBox="0 0 1063.000000 865.000000"
 preserveAspectRatio="xMidYMid meet">

<g transform="translate(0.000000,865.000000) scale(0.100000,-0.100000)"
fill="#000000" stroke="none">
<path d="M5153 7963 c6 -205 26 -410 51 -528 l12 -60 7 75 c9 98 -8 400 -33
570 -11 74 -20 138 -20 143 0 4 -5 7 -12 7 -8 0 -9 -54 -5 -207z"/>
<path d="M5858 7943 c-101 -210 -203 -477 -232 -608 l-7 -30 21 33 c52 84 141
281 210 467 43 116 94 284 88 291 -3 2 -39 -67 -80 -153z"/>
<path d="M4497 7948 c36 -118 116 -314 184 -448 56 -111 116 -213 105 -178 -3
9 -10 36 -16 60 -22 81 -118 315 -180 439 -62 123 -109 209 -115 209 -2 0 8
-37 22 -82z"/>
<path d="M4835 6906 c-142 -32 -275 -115 -398 -245 -75 -80 -196 -259 -254
-376 -113 -227 -135 -495 -54 -653 11 -20 51 -76 89 -124 39 -48 73 -96 77
-107 10 -31 19 -26 43 24 12 25 18 45 13 45 -18 0 -41 70 -41 127 0 76 13 121
53 180 45 67 94 84 163 58 69 -26 145 -105 173 -180 48 -127 38 -242 -34 -385
-52 -104 -69 -172 -69 -285 -1 -156 43 -261 162 -387 154 -163 405 -279 570
-264 163 14 293 126 392 338 41 89 80 214 80 261 0 35 -24 83 -49 97 -76 40
-229 -29 -377 -171 -76 -73 -105 -89 -161 -89 -83 0 -167 79 -273 256 -101
170 -114 213 -115 374 0 151 16 223 81 355 33 67 37 72 80 83 85 23 174 102
209 186 15 35 15 37 -8 45 -37 14 -129 132 -115 147 2 2 51 15 109 29 78 20
140 28 250 32 131 5 154 3 218 -16 38 -12 83 -32 97 -45 l28 -23 35 24 c27 19
46 24 78 21 l43 -3 -6 35 c-11 66 -71 229 -105 287 -78 131 -217 238 -383 294
-168 56 -475 84 -601 55z"/>
<path d="M5941 5900 c-2 -248 -12 -360 -38 -399 -41 -64 -45 -75 -14 -41 53
60 64 112 68 325 2 105 0 224 -5 265 -8 63 -10 39 -11 -150z"/>
<path d="M5260 5590 c-62 -8 -65 -7 125 -19 78 -5 154 -12 170 -15 l30 -6 -32
15 c-29 13 -187 37 -223 33 -8 -1 -40 -4 -70 -8z"/>
<path d="M5834 5536 c-46 -46 -46 -94 2 -217 69 -177 78 -238 42 -285 l-21
-29 29 28 c26 24 29 33 27 85 0 34 -12 88 -26 128 -14 38 -37 102 -51 142 -30
83 -27 109 16 152 16 17 26 30 23 30 -4 0 -22 -15 -41 -34z"/>
<path d="M5423 5453 c-14 -5 -17 -31 -7 -57 9 -23 51 -20 64 4 21 38 -14 71
-57 53z"/>
<path d="M4375 5425 c4 -11 9 -45 12 -75 7 -65 23 -86 75 -101 42 -11 78 -6
43 6 -73 25 -82 33 -89 77 -4 24 -16 59 -27 78 -11 19 -17 26 -14 15z"/>
<path d="M3955 5316 c-36 -16 -73 -55 -148 -156 -90 -122 -67 -114 -279 -101
-228 14 -575 14 -733 1 -137 -12 -305 -49 -384 -85 -29 -14 -81 -45 -115 -69
-71 -51 -215 -197 -272 -276 -44 -60 -144 -220 -163 -260 -14 -31 -13 -29 90
129 95 146 191 256 297 342 127 102 215 140 417 175 100 18 652 29 889 17
l168 -8 37 40 c21 23 60 74 88 115 63 93 89 118 144 135 32 10 37 14 19 14
-14 0 -38 -6 -55 -13z"/>
<path d="M4245 5257 c-62 -95 -131 -173 -186 -208 -58 -38 -58 -49 0 -19 53
27 114 82 152 137 33 48 83 143 77 148 -2 2 -21 -24 -43 -58z"/>
<path d="M3977 5252 c-28 -31 -50 -139 -43 -211 8 -75 44 -190 82 -259 26 -49
25 -45 -12 54 -27 74 -54 198 -54 254 0 92 37 170 81 170 11 0 41 -19 67 -41
l47 -42 -47 47 c-52 51 -92 60 -121 28z"/>
<path d="M5581 5104 c-1 -11 6 -29 15 -40 8 -10 12 -13 9 -6 -4 8 -11 26 -15
40 -7 22 -8 23 -9 6z"/>
<path d="M5840 4867 c0 -7 122 -107 325 -266 94 -74 187 -150 209 -170 116
-109 371 -497 576 -876 61 -112 124 -215 156 -253 87 -102 86 -132 -13 -218
-37 -33 -108 -99 -158 -148 -183 -180 -342 -283 -451 -293 l-59 -5 -60 82
c-91 125 -262 290 -300 290 -3 0 27 -30 66 -67 64 -61 182 -211 238 -305 19
-33 29 -38 70 -44 41 -5 50 -11 73 -46 l26 -41 -54 -82 c-122 -188 -181 -379
-191 -623 l-6 -133 -231 -114 c-127 -63 -270 -135 -317 -160 -59 -32 -112 -51
-170 -63 -79 -15 -97 -15 -379 7 -570 43 -1379 100 -1790 126 -330 21 -418 30
-432 42 -51 46 -71 202 -66 531 l3 259 -145 48 c-278 91 -517 204 -827 388
-179 107 -284 161 -361 188 -61 21 -60 22 -64 -69 l-3 -62 -55 47 c-52 44 -53
44 -17 7 46 -49 47 -60 5 -38 -58 30 -95 63 -118 107 l-22 42 50 105 c84 176
142 318 189 465 25 77 64 201 88 275 59 184 58 181 34 130 -11 -25 -56 -148
-99 -275 -73 -215 -216 -567 -261 -644 -28 -47 -19 -87 32 -145 43 -49 91 -79
146 -91 l33 -7 0 -306 c0 -326 14 -805 30 -1037 5 -77 12 -184 16 -238 l7 -97
-384 0 c-211 0 -516 -3 -676 -7 l-293 -6 0 -45 0 -45 197 7 c109 3 416 7 682
7 l485 2 12 -59 c51 -249 222 -459 466 -573 116 -55 222 -79 437 -102 325 -33
683 -45 993 -31 472 21 755 56 1268 157 440 87 577 109 1365 220 980 138 1124
163 1229 217 22 11 69 24 102 27 l62 7 6 -51 c3 -27 7 -93 7 -145 l2 -95 11
145 11 145 25 -2 c149 -12 174 -3 265 94 l61 64 105 15 c58 8 158 27 222 43
l117 28 1 -111 1 -111 13 80 c8 44 14 96 14 116 l1 36 86 32 c47 17 94 31 104
31 26 0 35 -18 18 -38 -8 -9 -19 -28 -25 -42 -19 -45 -131 -185 -195 -246
-169 -157 -449 -303 -698 -365 -128 -31 -392 -34 -515 -5 -108 25 -234 70
-327 117 -43 22 -78 37 -78 35 0 -10 127 -75 212 -110 48 -20 136 -48 195 -63
94 -24 128 -27 268 -27 117 -1 182 4 243 17 194 42 409 133 582 248 109 72
257 215 319 307 l42 62 562 0 c593 0 587 0 587 45 0 45 5 45 -561 45 l-538 0
25 60 c144 356 120 760 -68 1110 -179 335 -492 565 -866 636 -93 18 -303 24
-388 11 l-51 -7 -50 78 c-43 67 -48 81 -40 105 17 53 0 95 -72 171 -88 93
-190 259 -501 811 -169 300 -203 335 -590 597 -190 129 -210 142 -210 135z
m1390 -1832 c24 -36 41 -67 39 -68 -2 -2 -40 -13 -84 -26 -44 -12 -115 -37
-158 -56 -43 -18 -77 -29 -75 -24 3 8 228 239 234 239 1 0 21 -29 44 -65z
m548 -129 c278 -60 546 -222 711 -430 28 -35 51 -67 51 -71 0 -4 -15 4 -32 17
-37 28 -92 58 -106 58 -5 0 -12 -12 -15 -27 -10 -45 -45 -93 -67 -93 -11 0
-20 7 -20 15 0 24 -68 229 -96 287 -14 29 -22 44 -19 33 22 -68 77 -306 73
-311 -11 -11 -79 9 -111 32 -17 13 -45 31 -61 39 -27 16 -30 16 -56 -4 -27
-20 -31 -20 -151 -5 -68 8 -172 17 -231 20 l-108 6 -1 111 c-1 62 -4 150 -8
197 -6 78 -7 69 -14 -110 -5 -107 -10 -197 -12 -199 -3 -2 -64 -7 -137 -12
-73 -5 -167 -13 -208 -19 -89 -13 -331 -60 -342 -66 -5 -3 -8 3 -8 13 0 20 51
232 76 319 l15 51 107 51 c115 54 219 87 347 108 100 17 323 11 423 -10z
m-6148 -34 c36 -16 171 -88 300 -162 336 -191 592 -308 856 -389 l101 -32 -1
-282 c-1 -187 3 -307 12 -355 14 -83 53 -168 79 -175 10 -3 65 -8 123 -12 156
-9 515 -39 1280 -105 1162 -100 1094 -96 1197 -76 64 12 114 30 183 66 52 27
235 120 405 205 260 130 321 157 380 167 81 13 125 6 125 -20 0 -9 -43 -71
-95 -136 -53 -66 -94 -124 -92 -130 6 -19 72 -28 172 -24 182 9 378 94 629
274 39 27 58 34 85 32 50 -4 51 -29 4 -105 -71 -117 -148 -198 -248 -265 -52
-34 -92 -64 -90 -66 2 -3 44 17 92 44 48 26 110 59 138 72 27 13 84 46 126 73
92 59 179 83 205 57 11 -10 14 -25 10 -40 -13 -49 -67 -127 -108 -155 -36 -25
-197 -140 -288 -206 -64 -46 140 76 247 148 l68 45 18 -21 c24 -30 21 -75 -8
-124 -27 -47 -129 -122 -260 -192 -44 -23 -77 -43 -74 -43 15 0 152 62 209 96
33 19 65 32 70 29 15 -9 12 -62 -4 -94 -19 -35 -85 -95 -133 -119 -97 -50
-236 -73 -995 -167 -930 -116 -1164 -150 -1653 -244 -464 -89 -754 -123 -1192
-143 -416 -18 -1038 13 -1255 63 -160 37 -320 130 -429 247 -79 86 -132 174
-163 272 -55 174 -100 820 -113 1608 -5 351 -4 412 8 412 8 0 43 -13 79 -28z
m5225 -194 c-22 -46 -30 -54 -92 -84 -37 -18 -83 -42 -100 -54 -18 -12 -33
-17 -33 -12 0 20 216 202 241 202 4 0 -3 -23 -16 -52z m-244 -86 c-49 -63 -56
-66 -76 -36 -20 31 -18 33 43 54 67 24 67 24 33 -18z m895 -274 c-3 -50 -6
-117 -6 -150 l0 -58 -47 0 c-111 0 -245 -69 -308 -158 -27 -40 -30 -51 -30
-122 l0 -78 -59 -6 c-32 -3 -126 -6 -209 -6 l-150 0 6 37 c4 21 13 43 22 49
17 13 19 37 6 63 -10 18 53 429 67 443 9 9 231 45 357 58 145 15 171 16 269
18 l89 2 -7 -92z m247 50 c-10 -92 -14 -97 -85 -112 -16 -4 -28 -11 -28 -17 0
-20 76 -88 106 -94 53 -12 112 -36 146 -60 59 -43 88 -56 146 -65 31 -5 62
-16 70 -23 19 -19 31 -80 32 -153 0 -70 -15 -91 -73 -101 -33 -5 -40 -1 -91
47 -46 44 -60 52 -83 47 -15 -3 -35 -1 -45 4 -18 10 -51 91 -63 154 -10 56
-20 65 -79 66 -28 0 -73 8 -101 18 l-50 18 -3 156 -3 157 105 0 104 0 -5 -42z
m248 6 c8 -8 25 -14 36 -14 39 0 53 -11 53 -41 0 -107 -186 -82 -246 33 -25
48 -21 51 63 44 44 -4 85 -13 94 -22z m269 -45 c0 -4 -7 -6 -15 -3 -8 4 -15
10 -15 15 0 4 7 6 15 3 8 -4 15 -10 15 -15z m-1571 -264 c-8 -76 -14 -89 -24
-46 -6 29 12 111 25 111 3 0 3 -29 -1 -65z m-9 -285 c0 -22 -1 -23 -24 -14
-13 5 -14 9 -5 20 16 20 29 17 29 -6z m483 -98 c9 -8 17 -18 17 -22 0 -11
-190 -115 -272 -148 -42 -18 -105 -39 -140 -47 -66 -15 -228 -21 -228 -7 0 4
36 52 80 106 44 55 80 107 80 116 0 9 2 19 4 21 3 2 103 3 223 1 179 -3 221
-7 236 -20z m1177 -157 c0 -61 -12 -70 -35 -25 -19 37 -11 80 16 80 16 0 19
-8 19 -55z m-976 -10 c4 -14 4 -30 1 -35 -8 -13 -115 -73 -121 -67 -5 5 97
127 107 127 4 0 10 -11 13 -25z m1079 -52 c65 -85 71 -100 77 -186 l5 -78 -35
-9 c-19 -5 -55 -12 -79 -16 l-43 -7 6 59 c3 32 8 112 12 177 4 64 8 117 10
117 1 0 23 -26 47 -57z m-324 -82 c11 -21 27 -41 36 -45 47 -18 124 2 154 38
27 32 32 14 29 -101 l-3 -118 -105 -22 c-140 -30 -161 -27 -90 13 31 18 62 39
69 47 30 37 -22 84 -80 72 -36 -8 -63 7 -79 44 -18 46 3 111 36 111 7 0 22
-17 33 -39z"/>
<path d="M2806 4692 c59 -88 88 -147 114 -230 17 -51 30 -100 31 -110 0 -12 3
-9 11 8 16 41 4 159 -23 215 -26 54 -96 129 -129 138 -21 5 -21 5 -4 -21z"/>
<path d="M4060 4690 c6 -11 13 -20 16 -20 2 0 0 9 -6 20 -6 11 -13 20 -16 20
-2 0 0 -9 6 -20z"/>
<path d="M4221 4460 c62 -81 221 -230 305 -286 121 -80 176 -98 304 -99 99 0
109 2 170 32 42 21 86 54 125 94 l60 63 -60 -53 c-110 -96 -237 -138 -351
-116 l-38 7 64 34 c36 19 84 53 108 77 39 38 112 137 112 152 0 3 -30 -28 -67
-69 -76 -85 -182 -173 -218 -182 -73 -18 -289 126 -479 321 -52 52 -61 58 -35
25z"/>
<path d="M1795 4249 c-9 -17 -15 -33 -13 -35 3 -2 12 12 21 31 21 43 13 47 -8
4z"/>
<path d="M1706 4055 c-9 -26 -7 -32 5 -12 6 10 9 21 6 23 -2 3 -7 -2 -11 -11z"/>
<path d="M1686 4005 c-9 -26 -7 -32 5 -12 6 10 9 21 6 23 -2 3 -7 -2 -11 -11z"/>
<path d="M2907 3853 c-19 -143 -29 -592 -23 -983 7 -461 16 -593 29 -411 20
280 27 769 17 1095 -6 187 -12 341 -14 343 -2 2 -6 -18 -9 -44z"/>
<path d="M6131 3608 c-101 -309 -146 -508 -161 -723 -6 -77 -18 -173 -26 -213
-21 -99 -86 -224 -186 -359 -106 -143 -139 -197 -198 -331 -48 -107 -140 -368
-140 -394 1 -7 20 35 44 94 108 264 194 418 336 598 101 130 171 260 196 365
8 39 20 135 24 214 6 100 13 147 22 152 9 6 9 9 1 9 -8 0 -10 12 -7 38 12 83
67 348 108 517 24 99 43 181 41 183 -2 2 -26 -65 -54 -150z"/>
<path d="M1380 2916 c0 -8 4 -17 9 -20 5 -4 7 3 4 14 -6 23 -13 26 -13 6z"/>
</g>
</svg>
