<?xml version="1.0" standalone="no"?>
<!DOCTYPE svg PUBLIC "-//W3C//DTD SVG 20010904//EN"
 "http://www.w3.org/TR/2001/REC-SVG-20010904/DTD/svg10.dtd">
<svg version="1.0" xmlns="http://www.w3.org/2000/svg"
 width="1290.000000pt" height="1241.000000pt" viewBox="0 0 1290.000000 1241.000000"
 preserveAspectRatio="xMidYMid meet">

<g transform="translate(0.000000,1241.000000) scale(0.100000,-0.100000)"
fill="#000000" stroke="none">
<path d="M5766 12374 c-225 -54 -436 -258 -576 -557 -59 -126 -84 -202 -111
-337 -33 -168 -121 -380 -263 -635 -31 -54 -56 -100 -56 -102 0 -2 9 -3 19 -3
32 0 106 -36 146 -71 45 -40 85 -119 85 -171 0 -35 4 -40 64 -78 188 -119 234
-296 130 -501 l-26 -52 42 33 c133 106 222 321 260 630 14 120 14 145 -4 131
-17 -15 -49 22 -67 77 -6 20 -36 99 -65 174 -30 76 -54 151 -54 167 0 41 32
62 80 55 72 -12 320 66 457 142 152 86 303 221 406 366 58 81 137 234 158 306
10 36 15 41 33 36 49 -14 403 -193 419 -211 14 -16 20 -49 28 -144 12 -155 23
-214 59 -298 47 -112 55 -167 54 -401 0 -208 -1 -219 -31 -331 -68 -255 -152
-417 -283 -549 -122 -123 -251 -179 -407 -180 -35 0 -63 -4 -63 -8 0 -4 -9
-70 -20 -147 -29 -206 -39 -189 88 -148 304 99 656 124 949 68 43 -8 80 -15
82 -15 2 0 -4 9 -13 19 -66 73 -116 424 -116 821 0 269 -19 682 -36 777 -30
173 -197 611 -290 760 -87 139 -218 249 -347 292 -82 27 -190 42 -253 35 -36
-5 -59 -2 -82 10 -52 27 -193 56 -267 55 -38 0 -96 -7 -129 -15z"/>
<path d="M6745 11191 c-22 -10 -49 -26 -60 -35 -19 -16 -17 -17 33 -10 29 3
76 12 105 20 28 8 63 14 76 14 20 0 21 2 11 15 -18 22 -115 19 -165 -4z"/>
<path d="M5931 11145 c-67 -19 -116 -42 -133 -63 -11 -14 -10 -15 7 -8 45 18
190 36 345 44 155 7 162 9 125 21 -63 20 -279 24 -344 6z"/>
<path d="M6750 11090 c-25 -25 -26 -80 -2 -109 45 -55 132 -24 132 48 0 55
-23 81 -71 81 -26 0 -46 -7 -59 -20z"/>
<path d="M6055 11055 c-68 -67 23 -175 101 -120 29 19 38 69 19 104 -24 48
-81 56 -120 16z"/>
<path d="M6645 10772 c30 -84 31 -105 4 -148 -24 -39 -17 -42 28 -14 56 34 56
108 0 181 -50 66 -61 60 -32 -19z"/>
<path d="M10583 10806 c-63 -53 -83 -193 -83 -586 -1 -330 -11 -510 -34 -564
-13 -32 -18 -36 -31 -26 -25 21 -53 113 -95 317 -67 324 -149 540 -235 623
-30 29 -43 35 -80 35 -86 0 -116 -67 -116 -260 0 -183 29 -407 97 -765 40
-209 45 -316 20 -424 -9 -38 -14 -71 -11 -74 3 -3 5 -3 5 0 0 3 9 40 20 84 30
117 26 203 -24 539 -57 377 -69 505 -64 664 3 102 7 132 23 159 30 50 65 47
118 -10 71 -78 145 -271 216 -568 59 -246 95 -340 130 -340 55 0 62 53 71 530
9 438 17 523 56 606 9 19 27 42 40 50 19 13 26 13 57 0 67 -28 114 -130 143
-316 10 -58 19 -218 24 -415 8 -333 18 -415 58 -458 13 -15 16 -35 14 -95 l-3
-77 25 68 c46 128 121 228 183 243 33 9 90 -21 114 -59 9 -16 25 -54 34 -85
15 -47 16 -64 7 -107 -6 -27 -32 -140 -56 -249 -45 -195 -54 -266 -21 -149 9
32 41 136 71 231 54 169 56 174 89 188 51 21 117 18 148 -6 55 -44 64 -173 18
-266 -34 -69 -57 -150 -71 -260 -20 -149 -45 -195 -118 -219 l-47 -15 40 6
c80 11 116 55 140 174 9 41 21 95 27 120 14 57 78 200 90 200 5 0 13 -12 18
-26 28 -72 -4 -223 -98 -464 -67 -173 -81 -230 -112 -444 -36 -248 -54 -290
-192 -427 -83 -83 -36 -49 62 46 96 92 118 145 160 395 31 181 43 224 127 435
116 290 137 432 77 520 -18 27 -24 49 -24 88 0 74 -16 123 -55 165 l-34 37
-90 0 -91 0 -11 35 c-46 141 -123 206 -220 185 -36 -8 -109 -71 -140 -122 -13
-20 -25 -31 -30 -26 -24 24 -41 171 -49 438 -9 297 -29 458 -70 566 -57 153
-145 216 -217 155z"/>
<path d="M6318 10730 c-9 -6 -22 -26 -28 -46 -11 -32 -10 -39 7 -63 24 -32 61
-43 48 -15 -11 24 -11 71 -1 107 9 28 2 33 -26 17z"/>
<path d="M8315 10724 c-11 -2 -44 -9 -73 -15 -192 -39 -396 -186 -520 -374
-66 -99 -258 -481 -337 -670 -32 -77 -61 -143 -65 -147 -3 -4 -28 0 -55 9 -34
11 -97 17 -200 19 -82 1 -192 8 -243 15 -263 34 -527 -53 -717 -235 l-60 -57
72 54 c205 155 447 224 681 196 53 -6 183 -12 287 -13 154 -1 197 -4 227 -18
64 -29 325 -265 373 -338 58 -88 107 -189 138 -285 37 -113 43 -143 82 -437
45 -335 86 -588 126 -769 60 -278 35 -556 -60 -669 l-29 -35 -287 57 c-158 32
-291 61 -297 64 -15 10 -2 116 15 126 46 25 137 111 191 179 195 246 320 662
303 1008 -3 62 -10 118 -16 124 -6 6 -38 21 -71 33 -170 61 -328 216 -426 417
-34 70 -56 74 -73 15 -21 -73 -97 -224 -151 -302 -67 -96 -189 -214 -271 -259
-111 -61 -186 -79 -334 -81 l-130 -1 -7 -130 c-8 -157 5 -429 27 -542 20 -107
38 -155 81 -225 45 -74 66 -171 62 -296 l-3 -95 -146 -62 c-302 -130 -742
-289 -1012 -365 l-117 -34 207 -52 c363 -91 402 -113 427 -245 24 -123 38
-318 34 -450 -5 -145 -16 -179 -60 -179 -33 0 -76 20 -100 46 -18 21 -48 131
-73 269 -19 109 -31 141 -59 160 -32 23 -40 17 -10 -8 24 -21 27 -33 44 -177
10 -85 23 -184 30 -220 13 -73 19 -540 7 -582 -6 -24 -13 -28 -43 -28 -19 0
-52 9 -73 20 -82 42 -103 95 -131 330 -12 101 -28 205 -36 230 -15 50 -61 103
-108 126 -18 8 -23 9 -12 2 92 -63 103 -90 116 -270 15 -204 15 -373 0 -443
-16 -79 -48 -144 -75 -157 -32 -14 -90 16 -121 61 -46 70 -84 222 -84 337 0
87 -51 158 -150 209 -33 18 -120 37 -120 27 0 -2 16 -22 36 -44 60 -67 66 -92
74 -308 8 -193 0 -332 -19 -368 -9 -17 -16 -18 -67 -10 -136 21 -173 81 -199
327 -8 74 -18 138 -22 142 -4 4 -65 30 -135 58 -144 57 -258 113 -305 148
l-33 25 -47 -40 c-27 -22 -79 -73 -118 -113 l-70 -72 93 79 c152 129 133 120
189 80 38 -27 198 -111 265 -139 10 -4 9 -8 -3 -16 -47 -30 -24 -111 31 -111
34 0 65 38 57 70 -5 21 8 26 32 11 9 -6 17 -44 23 -117 16 -204 57 -307 137
-348 32 -17 157 -37 177 -29 49 19 63 162 40 435 -15 194 -27 239 -79 295 -47
52 30 34 108 -25 69 -52 95 -101 95 -180 0 -135 37 -285 86 -349 42 -56 107
-78 155 -53 26 15 64 93 79 165 7 33 14 66 16 72 2 7 24 -8 52 -36 39 -39 60
-51 103 -61 73 -16 101 -11 117 22 22 46 34 196 30 366 -4 160 -3 163 17 157
91 -28 121 -28 150 1 13 14 17 14 31 0 18 -19 65 -21 82 -4 14 14 16 67 3 87
-5 8 -22 14 -39 15 l-29 1 -6 180 c-5 168 -29 358 -57 457 -23 81 -135 130
-430 189 -85 17 -157 32 -159 35 -8 8 4 11 129 39 68 15 130 29 137 32 9 3 10
-5 6 -31 -9 -60 36 -93 88 -66 24 13 27 87 4 96 -30 12 -13 22 81 49 150 42
454 147 622 214 84 34 156 61 160 61 4 0 14 -31 23 -69 28 -115 64 -178 154
-268 91 -92 146 -122 218 -123 65 0 112 26 180 100 69 74 121 179 150 301 15
59 26 88 34 85 19 -8 534 -93 668 -111 155 -21 147 -18 129 -53 -18 -37 -3
-78 32 -86 49 -13 85 33 69 85 -7 20 -5 21 26 16 78 -14 352 -48 360 -45 6 2
-139 34 -322 71 -183 37 -335 69 -337 72 -3 2 10 21 28 41 73 84 104 207 105
419 0 141 -4 185 -37 373 -21 117 -38 221 -38 231 0 12 14 24 40 34 l39 15 81
-53 c117 -77 230 -116 350 -122 78 -3 102 0 135 15 l40 19 -62 -5 c-83 -6
-184 18 -368 86 -82 30 -151 56 -153 58 -2 1 16 22 40 46 49 49 72 110 71 191
-1 45 1 48 21 42 97 -28 88 -17 -64 87 -86 58 -181 119 -211 137 -55 31 -57
33 -63 84 -9 67 -66 237 -107 319 -17 35 -57 101 -87 148 l-56 85 -4 145 -4
145 78 13 c59 9 106 25 185 65 100 50 106 51 98 28 -30 -77 57 -145 120 -93
54 43 26 137 -41 144 l-32 3 42 34 c33 26 45 31 56 22 34 -29 126 -35 126 -9
0 14 -69 40 -91 33 -30 -10 -22 10 16 40 20 15 89 80 153 144 l117 118 154
-87 c84 -48 180 -100 212 -116 33 -15 59 -30 59 -33 0 -3 -24 -7 -53 -8 -57
-2 -158 -35 -177 -58 -10 -12 -9 -15 7 -15 36 0 137 21 204 42 l66 21 69 -26
c119 -45 152 -50 217 -33 60 16 80 13 110 -12 9 -8 17 -13 17 -11 0 11 -54
169 -81 236 -148 373 -433 677 -713 762 -67 21 -219 35 -261 25z m-883 -1991
c22 -29 69 -79 103 -112 l64 -59 -43 -6 c-100 -15 -145 -79 -154 -223 -3 -56
1 -119 13 -191 19 -115 16 -151 -15 -182 -13 -13 -16 -20 -7 -20 8 0 24 12 38
26 24 26 24 27 21 217 -2 118 1 209 8 238 14 58 54 98 115 113 44 12 49 10
129 -28 l83 -41 7 -55 c17 -143 -37 -452 -113 -643 -72 -182 -165 -330 -263
-422 -117 -109 -142 -128 -188 -138 l-45 -11 47 -9 46 -9 -1 -57 c-1 -33 4
-69 11 -83 13 -24 9 -34 -73 -174 -107 -182 -134 -223 -177 -260 -107 -94
-200 -56 -282 113 -21 43 -62 121 -92 175 l-54 96 11 54 c7 33 10 97 6 169
l-6 117 47 -18 c78 -29 114 -33 56 -6 -55 25 -134 91 -134 111 0 6 -15 32 -34
56 -82 105 -136 392 -136 719 l0 125 113 0 c124 0 210 21 319 76 32 16 59 29
60 29 2 0 2 -20 0 -44 -5 -55 21 -86 72 -86 41 0 76 37 76 80 0 41 -35 80 -72
80 -26 0 -29 2 -18 15 10 12 29 14 94 9 44 -3 95 -1 111 4 l30 10 -37 16 c-21
9 -58 16 -83 16 l-46 0 67 78 c67 79 144 199 183 287 l22 50 40 -75 c23 -41
59 -99 81 -127z m551 -204 c53 -52 150 -125 200 -151 35 -18 38 -22 32 -51
-12 -57 -66 -164 -99 -194 -47 -44 -106 -85 -106 -75 0 12 -68 446 -76 485 -3
15 -3 27 1 27 3 0 25 -19 48 -41z"/>
<path d="M7545 8447 c-58 -49 -29 -137 45 -137 49 0 70 18 77 66 10 76 -66
120 -122 71z"/>
<path d="M7190 7718 c62 -56 153 -98 213 -98 41 0 53 5 75 29 15 16 35 48 45
72 l18 44 -49 -48 c-62 -62 -90 -62 -237 -2 l-110 44 45 -41z"/>
<path d="M4530 10664 c-30 -20 -64 -44 -75 -54 -18 -17 -27 -18 -93 -8 -193
28 -377 -63 -457 -226 -26 -53 -30 -56 -64 -56 -54 0 -137 -25 -218 -65 -145
-72 -251 -219 -288 -400 -9 -44 -17 -80 -18 -81 -1 -1 -37 -19 -80 -40 -136
-67 -233 -172 -277 -300 -26 -73 -35 -191 -22 -264 l10 -54 -72 -76 c-115
-123 -166 -244 -166 -397 0 -108 15 -170 70 -278 l45 -90 -39 -35 c-54 -49
-123 -141 -152 -204 -72 -158 -69 -330 10 -517 6 -15 -5 -18 -86 -23 -51 -4
-145 -14 -208 -22 -500 -66 -870 -263 -1020 -545 -58 -109 -351 -945 -506
-1444 -235 -757 -381 -1388 -445 -1925 -28 -239 -31 -592 -6 -749 83 -516 334
-988 656 -1232 87 -65 246 -144 346 -170 116 -31 291 -31 400 -1 230 64 430
218 666 512 331 413 720 1090 1019 1775 131 300 263 653 355 950 33 110 48
143 65 152 42 21 53 63 24 94 -14 15 -14 23 1 78 9 34 26 113 39 175 l23 114
-55 23 c-76 31 -176 132 -225 225 -62 120 -82 221 -81 419 0 175 16 315 37
315 27 0 246 115 359 188 68 44 143 89 167 102 86 43 219 89 322 111 137 29
366 31 514 4 55 -10 106 -18 113 -19 9 -1 43 81 98 234 194 542 213 588 275
669 31 42 96 121 144 176 277 318 328 460 281 785 -18 124 -21 327 -5 402 6
29 28 87 49 128 73 146 85 265 40 368 -11 24 -20 46 -20 49 0 2 15 1 34 -3 43
-8 101 11 121 39 20 28 19 41 -2 32 -10 -4 -53 -15 -95 -25 l-77 -17 -43 44
c-24 24 -64 57 -89 74 -40 26 -47 35 -58 82 -38 172 -173 264 -396 272 -92 4
-95 3 -33 -5 235 -30 370 -133 394 -302 6 -45 10 -50 59 -78 85 -49 151 -114
186 -185 28 -58 31 -71 27 -142 -3 -69 -9 -91 -55 -188 -62 -132 -70 -160 -83
-295 -9 -84 -8 -140 4 -268 29 -296 0 -381 -237 -694 -72 -95 -145 -197 -164
-225 -18 -29 -35 -53 -38 -53 -2 0 -56 -11 -121 -25 -153 -33 -325 -46 -453
-34 -100 9 -211 41 -211 60 0 20 29 65 62 95 80 75 189 113 396 138 144 18
183 35 256 117 88 97 153 268 221 574 20 88 42 183 50 210 23 82 28 174 15
280 -20 169 -64 294 -150 425 -39 59 -60 167 -65 335 -2 72 -4 133 -4 138 -2
16 -25 5 -68 -33 -46 -40 -94 -60 -145 -60 -42 0 -131 37 -198 82 -65 43 -90
44 -90 3 0 -96 -146 -183 -429 -255 -49 -13 -47 2 -15 -140 31 -136 -7 -283
-112 -441 -30 -44 -54 -82 -54 -85 0 -3 18 -28 39 -57 152 -202 138 -406 -41
-602 l-59 -65 9 -97 c30 -321 -85 -529 -331 -595 -161 -43 -271 -44 -747 -9
-239 18 -453 35 -475 39 -35 6 -43 13 -63 53 -34 68 -55 182 -49 265 11 158
87 295 232 423 38 33 38 34 21 60 -83 129 -109 221 -104 361 3 102 5 111 46
193 30 61 64 108 118 166 l76 80 -11 84 c-28 235 74 419 292 525 77 38 87 46
87 70 1 106 69 259 157 353 88 93 193 145 335 164 46 6 48 7 79 71 41 82 126
163 206 195 49 20 77 24 186 25 122 1 129 2 155 26 15 14 49 40 76 57 28 17
46 31 40 31 -5 0 -34 -16 -64 -36z m533 -948 c105 -52 182 -59 259 -24 l54 25
11 -131 c13 -143 38 -239 75 -289 33 -44 64 -98 72 -123 6 -21 5 -21 -40 -13
-51 10 -118 -2 -168 -29 l-31 -17 45 -3 c24 -2 80 1 123 7 44 6 83 9 87 6 5
-3 18 -47 31 -98 28 -117 31 -302 7 -392 -10 -33 -33 -134 -52 -225 -63 -291
-130 -461 -218 -552 -61 -62 -92 -75 -233 -93 -228 -30 -383 -103 -436 -207
-27 -53 -24 -75 13 -94 38 -20 164 -43 236 -44 28 0 52 -3 52 -6 0 -3 -21 -54
-46 -113 -118 -273 -247 -447 -386 -521 -55 -30 -72 -34 -138 -35 -66 0 -84 4
-145 34 -140 69 -303 266 -431 520 -62 122 -62 130 1 131 55 0 197 40 256 72
117 61 197 182 224 335 15 84 18 191 6 263 -7 45 -6 46 54 110 178 192 202
419 65 614 -22 31 -40 59 -40 61 0 2 22 36 50 75 27 40 61 104 76 144 16 39
29 72 30 74 2 3 330 -55 384 -68 19 -4 49 -11 65 -15 l30 -6 -36 25 c-78 54
-252 93 -370 83 l-67 -6 5 102 c3 71 0 118 -10 155 -10 38 -11 55 -3 57 226
65 337 115 402 181 24 24 44 51 44 60 0 8 3 14 8 12 4 -2 42 -21 85 -42z
m-1479 -3528 c-474 -369 -1209 -1113 -1741 -1763 -18 -21 -35 -37 -37 -34 -6
6 165 262 260 390 l71 95 6 134 c9 210 47 434 102 617 39 126 49 109 42 -64
-7 -167 -36 -372 -71 -513 -13 -52 -22 -96 -21 -98 1 -2 18 16 36 40 140 178
440 494 639 673 244 218 430 362 635 491 96 61 138 78 79 32z"/>
<path d="M5221 8980 c-7 -25 -16 -71 -18 -102 -5 -51 -2 -64 30 -125 19 -37
40 -87 47 -110 11 -37 11 -45 -4 -68 -17 -26 -17 -26 4 -15 51 27 50 109 -2
207 -25 49 -31 73 -36 158 l-7 100 -14 -45z"/>
<path d="M5373 9010 c-44 -18 -58 -90 -24 -131 13 -17 29 -23 56 -23 46 0 75
31 75 79 0 57 -55 95 -107 75z"/>
<path d="M4736 8989 c-20 -16 -26 -29 -26 -60 0 -50 27 -79 75 -79 48 0 75 29
75 79 0 31 -6 44 -26 60 -15 12 -37 21 -49 21 -12 0 -34 -9 -49 -21z"/>
<path d="M4982 8648 c-17 -17 -15 -63 4 -79 21 -17 34 3 34 54 0 38 -15 48
-38 25z"/>
<path d="M5385 8314 c-10 -19 -43 -58 -73 -85 -42 -39 -61 -49 -88 -49 -43 0
-115 36 -174 87 -25 21 -54 45 -64 53 -20 15 -20 15 0 -18 29 -52 106 -128
152 -151 48 -24 101 -27 141 -7 41 22 96 87 116 139 22 58 16 79 -10 31z"/>
<path d="M6683 10435 c-47 -33 -142 -48 -268 -41 l-120 6 35 -20 c57 -31 162
-46 228 -32 60 13 125 50 142 82 13 24 11 25 -17 5z"/>
<path d="M5721 10208 c20 -39 152 -161 211 -196 62 -37 163 -78 153 -63 -7 12
-361 281 -370 281 -3 0 0 -10 6 -22z"/>
<path d="M8787 9652 c-24 -27 -22 -94 3 -117 30 -27 88 -25 111 4 25 31 24 86
-1 111 -26 26 -90 27 -113 2z"/>
<path d="M9381 9630 c-1 -41 -29 -137 -71 -245 -27 -69 -44 -134 -54 -209 -15
-102 -43 -184 -78 -227 -10 -12 -39 -17 -128 -21 -131 -6 -183 -24 -245 -86
l-37 -37 56 -6 c30 -4 67 -14 81 -23 23 -15 59 -16 448 -6 571 14 1433 24
1427 17 -7 -7 -521 -32 -1240 -60 l-555 -22 -6 -1580 c-4 -869 -8 -1735 -10
-1925 l-4 -345 28 -59 c15 -32 21 -53 13 -47 -8 6 -24 35 -36 64 -21 47 -23
77 -33 337 -5 157 -10 1024 -11 1927 l-1 1641 -40 7 c-22 3 -59 17 -83 31 -24
14 -46 23 -49 20 -29 -29 -30 -113 -22 -2001 4 -1045 11 -1908 15 -1919 6 -16
3 -17 -24 -11 -24 5 -35 2 -51 -14 -40 -40 -20 -101 32 -101 37 0 57 15 57 42
0 27 12 21 42 -20 14 -21 50 -51 80 -67 l53 -30 895 -2 895 -3 21 -25 20 -26
-28 -56 c-15 -31 -28 -65 -28 -77 1 -12 8 -2 17 24 8 25 25 58 36 74 18 25 18
31 7 50 -30 46 -50 96 -56 137 -10 71 -6 69 -71 53 -158 -38 -503 -104 -545
-104 -54 0 -102 33 -124 87 -30 72 19 122 252 258 201 118 339 182 429 201
111 23 176 49 210 84 25 26 27 34 19 57 -20 59 -121 93 -270 93 -169 -1 -297
-46 -443 -155 -120 -90 -189 -118 -297 -123 -181 -8 -248 42 -194 147 36 72
407 453 475 489 30 15 247 39 520 57 132 9 246 18 253 20 18 6 15 35 -7 72
-57 92 -321 195 -460 178 -88 -11 -148 -33 -326 -120 -194 -96 -262 -115 -436
-122 -141 -7 -214 10 -266 62 -26 26 -33 41 -33 73 0 39 3 42 83 100 222 159
480 322 661 418 115 60 131 66 216 75 51 6 192 9 314 7 248 -4 210 4 449 -105
144 -66 154 -38 26 72 -175 152 -373 246 -589 281 -135 22 -174 16 -320 -54
-272 -130 -477 -165 -559 -96 -35 29 -66 103 -57 138 15 61 61 91 331 216 123
56 166 85 324 218 158 133 187 149 272 158 150 15 283 -31 449 -156 112 -84
203 -130 323 -165 127 -36 146 -47 246 -144 128 -122 133 -153 70 -389 -17
-62 -27 -121 -24 -132 3 -11 22 -38 41 -61 41 -50 69 -136 61 -193 -3 -23 -21
-73 -38 -111 -19 -40 -35 -91 -37 -121 -4 -47 1 -63 43 -147 72 -144 73 -234
4 -332 -51 -73 -54 -144 -15 -370 15 -86 42 -323 106 -930 34 -318 31 -212 -6
225 -32 388 -62 677 -80 770 -27 145 -18 220 39 303 62 91 57 211 -13 353 -22
45 -40 95 -40 114 0 18 17 69 37 114 34 74 38 89 38 166 0 91 -15 133 -70 198
-31 37 -31 44 0 146 73 241 50 334 -114 469 -95 79 -99 81 -224 118 -106 32
-223 88 -288 140 l-38 30 -3 672 c-3 671 -3 672 -25 713 -36 67 -70 101 -131
131 l-57 28 -475 3 c-261 2 -477 7 -480 11 -3 5 -21 16 -40 26 -123 63 -341
386 -401 595 -15 52 -28 84 -28 70z m1358 -1076 c29 -36 27 -85 -4 -118 -33
-36 -78 -35 -116 3 -32 33 -36 58 -14 101 17 33 27 38 77 39 28 1 41 -5 57
-25z m354 -1928 c40 -29 33 -39 -13 -16 -22 11 -40 27 -40 36 0 16 6 14 53
-20z"/>
<path d="M10722 9406 c-18 -9 -67 -48 -110 -89 -42 -40 -124 -106 -182 -146
-124 -87 -134 -96 -97 -82 89 34 249 134 321 202 72 67 98 79 166 79 132 0
183 -76 146 -221 -9 -35 -24 -75 -33 -89 -16 -24 -16 -24 1 -11 34 28 69 114
74 181 6 89 -13 132 -70 161 -55 28 -168 36 -216 15z"/>
<path d="M8547 9260 c-29 -23 -62 -25 -97 -5 -29 16 -90 20 -90 5 0 -5 4 -10
8 -10 5 0 29 -13 53 -30 57 -39 106 -40 140 -4 13 15 38 35 54 45 l30 19 -36
0 c-21 0 -47 -8 -62 -20z"/>
<path d="M11146 9013 c-6 -14 -5 -15 5 -6 7 7 10 15 7 18 -3 3 -9 -2 -12 -12z"/>
<path d="M8634 8920 c-87 -85 -108 -88 -211 -34 -37 20 -88 45 -113 56 l-45
19 25 -27 c14 -14 56 -48 93 -75 104 -73 179 -76 240 -11 31 34 99 142 89 142
-4 0 -39 -32 -78 -70z"/>
<path d="M11237 8759 c7 -7 15 -10 18 -7 3 3 -2 9 -12 12 -14 6 -15 5 -6 -5z"/>
<path d="M11306 7909 c-11 -110 -6 -371 9 -469 15 -100 34 -175 41 -168 5 5
-12 479 -22 611 -4 48 -10 87 -14 87 -4 0 -10 -28 -14 -61z"/>
<path d="M7544 6845 c-21 -32 -11 -72 21 -87 55 -25 104 37 70 88 -21 33 -69
33 -91 -1z"/>
<path d="M6367 6802 c-35 -39 -11 -102 38 -102 32 0 55 25 55 59 0 53 -60 80
-93 43z"/>
<path d="M8648 6803 c7 -3 16 -2 19 1 4 3 -2 6 -13 5 -11 0 -14 -3 -6 -6z"/>
<path d="M8440 6600 c-42 -42 -14 -104 44 -98 59 6 70 97 12 112 -31 8 -34 8
-56 -14z"/>
<path d="M5238 6593 c7 -3 16 -2 19 1 4 3 -2 6 -13 5 -11 0 -14 -3 -6 -6z"/>
<path d="M6053 6528 c-51 -24 -31 -108 27 -108 34 0 60 23 60 54 0 45 -45 74
-87 54z"/>
<path d="M7899 6526 c-27 -13 -36 -54 -19 -86 7 -14 21 -20 43 -20 41 0 57 15
57 56 0 47 -39 71 -81 50z"/>
<path d="M6614 6495 c-34 -52 15 -112 71 -87 54 25 35 112 -25 112 -20 0 -35
-8 -46 -25z"/>
<path d="M7265 6504 c-24 -25 -16 -75 16 -93 24 -13 29 -13 53 2 19 13 26 26
26 50 0 18 -5 38 -12 45 -17 17 -64 15 -83 -4z"/>
<path d="M8244 6295 c-34 -52 15 -112 71 -87 54 25 35 112 -25 112 -20 0 -35
-8 -46 -25z"/>
<path d="M7622 6254 c-24 -16 -29 -53 -12 -85 12 -22 68 -27 88 -7 21 21 15
75 -10 92 -12 9 -27 16 -33 16 -6 0 -21 -7 -33 -16z"/>
<path d="M6336 6194 c-22 -21 -20 -60 4 -84 25 -25 41 -25 70 -2 25 20 30 63
10 87 -16 20 -64 19 -84 -1z"/>
<path d="M6942 6198 c-7 -7 -12 -27 -12 -45 0 -24 7 -37 26 -50 24 -15 29 -15
53 -2 32 18 40 68 16 93 -19 19 -66 21 -83 4z"/>
<path d="M5558 6153 c12 -2 30 -2 40 0 9 3 -1 5 -23 4 -22 0 -30 -2 -17 -4z"/>
<path d="M8586 6074 c-36 -35 -6 -104 46 -104 40 0 66 78 36 108 -17 17 -64
15 -82 -4z"/>
<path d="M7998 5999 c-23 -13 -24 -72 -2 -93 35 -35 94 -6 94 47 0 47 -48 72
-92 46z"/>
<path d="M7315 5956 c-34 -51 13 -108 70 -86 55 21 35 110 -25 110 -20 0 -35
-8 -45 -24z"/>
<path d="M6672 5928 c-7 -7 -12 -27 -12 -45 0 -24 7 -37 26 -50 24 -15 29 -15
53 -2 29 16 39 56 21 89 -12 23 -68 28 -88 8z"/>
<path d="M7630 5610 c-24 -24 -25 -48 -4 -78 31 -44 104 -16 104 40 0 24 -35
58 -60 58 -11 0 -29 -9 -40 -20z"/>
<path d="M8225 5610 c-36 -40 -15 -100 36 -100 55 0 79 60 39 100 -25 25 -52
25 -75 0z"/>
<path d="M6992 5594 c-15 -10 -22 -25 -22 -48 0 -41 15 -56 57 -56 35 0 53 21
53 63 0 43 -52 67 -88 41z"/>
<path d="M6442 5558 c-7 -7 -12 -27 -12 -45 0 -24 7 -37 26 -50 24 -15 29 -15
53 -2 29 16 41 70 20 95 -14 17 -70 19 -87 2z"/>
<path d="M8514 5345 c-21 -32 -11 -72 21 -87 55 -25 104 37 70 88 -21 33 -69
33 -91 -1z"/>
<path d="M6132 5283 c-21 -8 -33 -50 -22 -78 18 -48 93 -41 106 10 12 50 -35
88 -84 68z"/>
<path d="M7967 5272 c-33 -37 -9 -102 37 -102 38 0 56 19 56 60 0 29 -5 42
-19 50 -29 15 -56 12 -74 -8z"/>
<path d="M6709 5270 c-47 -27 -24 -110 31 -110 53 0 78 62 40 100 -22 22 -46
25 -71 10z"/>
<path d="M7352 5264 c-45 -31 -20 -104 37 -104 36 0 51 17 51 56 0 32 -28 64
-55 64 -6 0 -21 -7 -33 -16z"/>
<path d="M4102 5228 c-7 -7 -12 -27 -12 -45 0 -24 7 -37 26 -50 24 -15 29 -15
53 -2 29 16 39 56 21 89 -12 23 -68 28 -88 8z"/>
<path d="M8323 5044 c-15 -24 -15 -29 -2 -53 27 -49 109 -34 109 20 0 39 -19
59 -55 59 -26 0 -39 -6 -52 -26z"/>
<path d="M7697 5002 c-23 -25 -21 -58 3 -82 38 -38 91 -17 92 37 1 18 -5 39
-12 48 -17 21 -63 19 -83 -3z"/>
<path d="M6420 4950 c-42 -42 -14 -104 44 -98 59 6 70 97 12 112 -31 8 -34 8
-56 -14z"/>
<path d="M7032 4954 c-25 -17 -31 -71 -10 -92 17 -17 64 -15 82 4 33 33 7 104
-39 104 -6 0 -21 -7 -33 -16z"/>
<path d="M5093 4915 c-27 -19 -31 -66 -7 -89 18 -19 65 -21 82 -4 13 13 16 66
4 85 -13 20 -56 25 -79 8z"/>
<path d="M4459 4886 c-27 -58 27 -114 77 -81 17 11 24 25 24 48 0 42 -15 57
-57 57 -26 0 -36 -6 -44 -24z"/>
<path d="M5896 4827 c-21 -15 -24 -70 -6 -92 17 -21 63 -19 83 3 48 53 -19
131 -77 89z"/>
<path d="M5254 4785 c-21 -32 -11 -72 21 -87 55 -25 104 37 70 88 -21 33 -69
33 -91 -1z"/>
<path d="M8089 4756 c-27 -13 -38 -68 -18 -92 14 -17 70 -19 87 -2 16 16 15
73 0 85 -24 18 -45 21 -69 9z"/>
<path d="M7409 4730 c-47 -27 -24 -110 31 -110 53 0 78 62 40 100 -22 22 -46
25 -71 10z"/>
<path d="M6762 4684 c-42 -29 -22 -104 28 -104 36 0 60 23 60 60 0 28 -30 60
-55 60 -6 0 -21 -7 -33 -16z"/>
<path d="M4822 4644 c-44 -31 -17 -104 39 -104 34 0 49 18 49 56 0 57 -43 80
-88 48z"/>
<path d="M9349 4600 c-26 -15 -32 -58 -14 -87 23 -34 73 -29 95 10 13 24 13
30 0 55 -17 29 -53 39 -81 22z"/>
<path d="M4142 4588 c-17 -17 -15 -73 3 -88 8 -7 26 -12 40 -12 49 0 70 45 45
93 -12 22 -68 27 -88 7z"/>
<path d="M10790 4581 c0 -14 67 -69 112 -92 48 -24 137 -36 164 -21 16 9 12
12 -25 22 -24 6 -69 23 -100 37 -101 45 -151 63 -151 54z"/>
<path d="M6248 4559 c-26 -15 -25 -85 1 -99 29 -15 56 -12 74 8 48 53 -14 127
-75 91z"/>
<path d="M9687 4532 c-23 -25 -21 -58 3 -82 38 -38 91 -17 92 37 1 18 -5 39
-12 48 -17 21 -63 19 -83 -3z"/>
<path d="M10560 4440 c27 -55 50 -104 50 -110 0 -5 -11 -10 -24 -10 -69 0 -76
-95 -9 -115 17 -4 29 1 48 19 l25 25 20 -39 c11 -22 18 -40 16 -40 -3 0 4 -33
15 -72 66 -236 231 -390 524 -487 159 -53 323 -81 512 -88 l153 -6 45 -139
c190 -581 261 -1217 199 -1778 -17 -156 -65 -404 -95 -492 -48 -145 -134 -283
-231 -374 -124 -116 -289 -179 -504 -191 -247 -14 -572 64 -874 210 -86 41
-118 63 -175 121 -191 192 -450 687 -769 1473 -208 511 -432 1126 -477 1303
-15 63 -43 160 -62 215 -36 105 -148 378 -153 372 -2 -1 15 -52 37 -112 56
-152 104 -323 128 -452 53 -297 56 -318 56 -478 -1 -182 -17 -280 -71 -445
-19 -58 -52 -137 -73 -175 l-37 -70 -380 -6 c-387 -6 -529 -15 -829 -50 -700
-82 -1416 -258 -2099 -515 -93 -35 -172 -64 -175 -64 -4 0 1 39 11 88 39 193
71 544 83 922 12 367 -38 1136 -99 1530 -19 118 -19 84 4 -485 34 -881 43
-1244 37 -1495 -6 -247 -14 -330 -44 -473 l-16 -78 -82 -53 c-100 -66 -215
-172 -265 -246 -45 -67 -60 -96 -28 -55 83 109 184 193 313 261 47 25 87 49
90 54 7 11 294 106 466 154 821 231 1794 405 2625 471 314 25 372 24 489 -7
131 -35 303 -93 377 -126 l58 -27 -60 -84 c-210 -292 -318 -638 -325 -1036
l-3 -180 -429 -113 c-235 -62 -648 -169 -918 -238 -269 -69 -598 -159 -730
-199 -132 -41 -265 -80 -296 -88 l-57 -15 1 35 c2 58 -53 83 -93 43 -22 -22
-26 -60 -8 -78 18 -18 2 -27 -76 -46 -79 -19 -450 -96 -465 -96 -5 0 -7 15 -4
33 7 44 -17 69 -61 65 -43 -4 -63 -45 -42 -86 l14 -28 -126 -17 c-260 -35
-353 -42 -607 -42 -340 1 -546 24 -795 91 -262 71 -511 203 -676 357 -73 68
-102 130 -134 285 -71 348 -107 1110 -97 2052 5 499 -2 476 -22 -71 -14 -373
-14 -1103 -1 -1370 23 -465 68 -734 145 -864 52 -89 250 -239 435 -327 313
-151 668 -221 1115 -220 571 0 1135 105 1875 347 124 41 358 111 520 155 314
87 1548 420 1554 420 2 0 1 48 -1 108 -13 262 51 581 164 823 l45 96 141 6
c78 4 151 9 162 12 18 5 29 -16 99 -177 214 -496 409 -849 568 -1030 l58 -67
-46 -7 c-69 -10 -297 2 -384 21 -190 41 -472 157 -559 229 -44 37 -95 56 -146
55 -25 0 -22 -3 21 -16 33 -9 68 -30 99 -60 96 -89 300 -187 487 -234 126 -31
367 -37 468 -11 74 20 75 20 102 0 56 -40 259 -129 390 -173 340 -111 656
-134 888 -63 149 46 304 150 389 262 57 77 125 205 156 297 34 98 79 321 101
494 22 169 25 617 6 795 -43 394 -127 772 -244 1095 l-43 120 -190 6 c-416 13
-699 109 -878 298 -76 81 -121 166 -143 271 -8 41 -19 77 -23 80 -4 3 -45 76
-90 163 -46 86 -85 157 -87 157 -2 0 18 -45 46 -100z m-1376 -1488 c54 -150
129 -353 167 -450 37 -97 67 -177 66 -179 -2 -1 -26 9 -55 22 -86 40 -236 94
-360 130 -65 18 -116 35 -115 37 22 38 88 191 107 248 35 106 65 259 72 379 4
56 10 98 14 94 3 -4 50 -131 104 -281z m289 -760 c26 -64 47 -119 47 -122 0
-3 -42 -3 -94 -2 -64 3 -111 -1 -145 -11 -28 -8 -51 -13 -51 -11 0 18 178 264
190 264 4 0 28 -53 53 -118z"/>
<path d="M8589 4506 c-17 -8 -25 -22 -27 -44 -4 -43 12 -62 54 -62 27 0 37 5
46 25 25 54 -23 106 -73 81z"/>
<path d="M7854 4475 c-21 -32 -11 -72 21 -87 55 -25 104 37 70 88 -21 33 -69
33 -91 -1z"/>
<path d="M5739 4440 c-47 -27 -24 -110 31 -110 53 0 78 62 40 100 -22 22 -46
25 -71 10z"/>
<path d="M7152 4434 c-41 -29 -20 -104 29 -104 39 0 59 19 59 55 0 33 -27 65
-55 65 -6 0 -21 -7 -33 -16z"/>
<path d="M10702 4420 c0 -14 2 -19 5 -12 2 6 2 18 0 25 -3 6 -5 1 -5 -13z"/>
<path d="M10102 4418 c-7 -7 -12 -27 -12 -45 0 -24 7 -37 26 -50 24 -15 29
-15 53 -2 29 16 39 56 21 89 -12 23 -68 28 -88 8z"/>
<path d="M5192 4388 c-7 -7 -12 -27 -12 -45 0 -24 7 -37 26 -50 24 -15 29 -15
53 -2 29 16 39 56 21 89 -12 23 -68 28 -88 8z"/>
<path d="M4525 4356 c-29 -29 -31 -43 -9 -74 10 -14 26 -22 44 -22 72 0 82 94
13 115 -17 4 -29 -1 -48 -19z"/>
<path d="M10693 4315 c0 -22 2 -30 4 -17 2 12 2 30 0 40 -3 9 -5 -1 -4 -23z"/>
<path d="M3872 4318 c-7 -7 -12 -26 -12 -43 0 -17 5 -36 12 -43 7 -7 26 -12
43 -12 17 0 36 5 43 12 7 7 12 26 12 43 0 17 -5 36 -12 43 -7 7 -26 12 -43 12
-17 0 -36 -5 -43 -12z"/>
<path d="M6690 4310 c-22 -22 -26 -51 -10 -81 13 -23 72 -26 90 -4 20 24 15
67 -10 87 -29 23 -45 23 -70 -2z"/>
<path d="M9089 4320 c-47 -27 -24 -110 31 -110 53 0 78 62 40 100 -22 22 -46
25 -71 10z"/>
<path d="M7584 4245 c-22 -33 -11 -73 23 -86 36 -14 68 2 77 36 16 64 -64 104
-100 50z"/>
<path d="M8244 4165 c-34 -52 15 -112 71 -87 54 25 35 112 -25 112 -20 0 -35
-8 -46 -25z"/>
<path d="M6082 4159 c-26 -10 -38 -52 -23 -85 8 -18 18 -24 45 -24 38 0 59 19
59 55 0 45 -38 70 -81 54z"/>
<path d="M7004 4125 c-34 -52 15 -112 71 -87 54 25 35 112 -25 112 -20 0 -35
-8 -46 -25z"/>
<path d="M9495 4136 c-21 -15 -25 -67 -5 -90 17 -22 63 -20 83 2 49 54 -20
131 -78 88z"/>
<path d="M4980 4120 c-24 -24 -25 -48 -4 -78 31 -44 104 -16 104 40 0 24 -35
58 -60 58 -11 0 -29 -9 -40 -20z"/>
<path d="M10617 4063 c-25 -43 -51 -90 -58 -105 -15 -34 -29 -36 -29 -5 0 31
-18 47 -51 47 -59 0 -82 -74 -33 -107 21 -13 32 -15 55 -6 l28 11 -24 -47
c-149 -295 -345 -877 -470 -1394 -59 -246 -146 -693 -144 -737 1 -12 129 429
153 524 l7 29 17 -34 c14 -29 22 -34 52 -34 27 0 37 6 50 28 13 24 13 30 0 55
-19 32 -52 39 -86 18 -13 -9 -24 -14 -24 -11 0 8 133 471 186 650 133 442 285
885 379 1098 24 53 42 97 40 97 -2 0 -23 -35 -48 -77z"/>
<path d="M4279 4076 c-27 -13 -38 -68 -18 -92 14 -17 70 -19 87 -2 16 16 15
73 0 85 -24 18 -45 21 -69 9z"/>
<path d="M9922 4048 c-7 -7 -12 -26 -12 -43 0 -17 5 -36 12 -43 7 -7 26 -12
43 -12 17 0 36 5 43 12 7 7 12 26 12 43 0 17 -5 36 -12 43 -7 7 -26 12 -43 12
-17 0 -36 -5 -43 -12z"/>
<path d="M5450 3960 c-42 -42 -14 -104 44 -98 59 6 70 97 12 112 -31 8 -34 8
-56 -14z"/>
<path d="M3799 3936 c-26 -57 27 -114 76 -82 51 33 33 99 -28 104 -31 3 -39
-1 -48 -22z"/>
<path d="M7336 3934 c-9 -8 -16 -28 -16 -44 0 -54 59 -80 93 -42 50 55 -26
138 -77 86z"/>
<path d="M11813 3905 c0 -27 2 -38 4 -22 2 15 2 37 0 50 -2 12 -4 0 -4 -28z"/>
<path d="M6473 3930 c-28 -11 -39 -53 -24 -86 9 -21 17 -25 48 -22 48 4 70 41
52 82 -7 14 -16 26 -20 26 -4 0 -13 2 -21 4 -7 3 -23 1 -35 -4z"/>
<path d="M4710 3890 c-24 -24 -25 -48 -4 -78 19 -28 57 -29 84 -2 24 24 25 48
4 78 -19 28 -57 29 -84 2z"/>
<path d="M7983 3889 c-27 -10 -39 -52 -24 -85 8 -18 18 -24 44 -24 41 0 57 15
57 56 0 45 -35 69 -77 53z"/>
<path d="M8738 3785 c-8 -18 -9 -35 -2 -53 8 -23 15 -27 49 -27 34 0 42 4 53
28 12 24 11 31 -2 53 -24 35 -82 34 -98 -1z"/>
<path d="M11822 3785 c0 -16 2 -22 5 -12 2 9 2 23 0 30 -3 6 -5 -1 -5 -18z"/>
<path d="M9333 3788 c-30 -39 -18 -92 23 -102 51 -13 89 39 65 90 -8 18 -18
24 -45 24 -18 0 -38 -6 -43 -12z"/>
<path d="M4139 3780 c-47 -27 -24 -110 31 -110 53 0 78 62 40 100 -22 22 -46
25 -71 10z"/>
<path d="M6083 3748 c-45 -58 5 -131 66 -99 50 27 29 111 -28 111 -16 0 -33
-6 -38 -12z"/>
<path d="M9781 3686 c-7 -8 -11 -30 -9 -48 7 -74 108 -69 108 5 0 18 -5 38
-12 45 -17 17 -73 15 -87 -2z"/>
<path d="M10262 3678 c-22 -22 -15 -76 13 -94 51 -33 103 23 76 82 -8 18 -18
24 -44 24 -18 0 -38 -5 -45 -12z"/>
<path d="M5744 3660 c-29 -12 -39 -56 -19 -86 19 -29 64 -32 88 -6 44 48 -8
116 -69 92z"/>
<path d="M6930 3620 c-24 -24 -25 -48 -4 -78 19 -28 57 -29 84 -2 24 24 25 48
4 78 -19 28 -57 29 -84 2z"/>
<path d="M7624 3585 c-34 -51 17 -111 73 -86 53 24 32 111 -27 111 -20 0 -35
-8 -46 -25z"/>
<path d="M8467 3582 c-35 -39 -11 -102 38 -102 32 0 55 25 55 60 0 54 -59 80
-93 42z"/>
<path d="M4462 3574 c-15 -10 -22 -25 -22 -48 0 -41 15 -56 57 -56 36 0 53 21
53 64 0 24 -32 56 -55 56 -6 0 -21 -7 -33 -16z"/>
<path d="M3576 3554 c-29 -28 -18 -80 20 -95 55 -20 101 38 69 87 -18 28 -65
33 -89 8z"/>
<path d="M6513 3539 c-27 -10 -39 -52 -24 -85 16 -35 74 -34 98 2 15 23 15 29
2 52 -17 30 -46 42 -76 31z"/>
<path d="M5086 3514 c-22 -21 -20 -60 4 -84 24 -24 38 -25 68 -4 25 17 31 71
10 92 -17 17 -64 15 -82 -4z"/>
<path d="M10747 3452 c-33 -37 -9 -102 37 -102 38 0 56 19 56 60 0 29 -5 42
-19 50 -29 15 -56 12 -74 -8z"/>
<path d="M9397 3412 c-23 -25 -21 -58 3 -82 38 -38 91 -17 92 37 1 18 -5 39
-12 48 -17 21 -63 19 -83 -3z"/>
<path d="M11171 3406 c-20 -24 -9 -79 18 -92 50 -25 98 27 73 81 -9 20 -19 25
-46 25 -18 0 -39 -6 -45 -14z"/>
<path d="M6110 3380 c-41 -41 -11 -105 47 -98 57 6 64 97 9 112 -31 8 -34 8
-56 -14z"/>
<path d="M9766 3367 c-23 -17 -26 -68 -6 -92 21 -25 71 -15 90 18 13 24 13 30
0 55 -18 31 -56 40 -84 19z"/>
<path d="M8512 3304 c-24 -16 -29 -53 -12 -85 12 -22 68 -27 88 -7 21 21 15
75 -10 92 -12 9 -27 16 -33 16 -6 0 -21 -7 -33 -16z"/>
<path d="M10138 3289 c-38 -22 -11 -109 33 -109 29 0 59 31 59 60 0 50 -47 76
-92 49z"/>
<path d="M11625 3276 c-22 -32 -10 -75 23 -87 57 -22 101 35 68 86 -22 34 -70
34 -91 1z"/>
<path d="M4051 3261 c-25 -25 -27 -49 -5 -79 30 -43 104 -16 104 38 0 48 -66
74 -99 41z"/>
<path d="M8073 3268 c-51 -24 -31 -108 27 -108 34 0 60 23 60 54 0 45 -45 74
-87 54z"/>
<path d="M4750 3230 c-24 -24 -25 -48 -4 -78 19 -28 57 -29 84 -2 24 24 25 48
4 78 -19 28 -57 29 -84 2z"/>
<path d="M7218 3239 c-26 -15 -25 -85 1 -99 29 -15 56 -12 74 8 48 53 -14 127
-75 91z"/>
<path d="M8850 3222 c-25 -20 -30 -63 -10 -87 18 -22 77 -19 90 4 32 61 -28
125 -80 83z"/>
<path d="M5642 3194 c-41 -28 -18 -104 32 -104 36 0 56 20 56 55 0 58 -42 81
-88 49z"/>
<path d="M3617 3162 c-23 -25 -21 -58 3 -82 51 -51 125 15 85 76 -19 29 -64
32 -88 6z"/>
<path d="M6591 3096 c-20 -24 -9 -79 18 -92 50 -25 98 27 73 81 -9 20 -19 25
-46 25 -18 0 -39 -6 -45 -14z"/>
<path d="M10530 3070 c-24 -24 -25 -48 -4 -78 21 -31 69 -30 89 2 40 61 -34
127 -85 76z"/>
<path d="M6952 3034 c-25 -17 -31 -71 -10 -92 17 -17 64 -15 82 4 33 33 7 104
-39 104 -6 0 -21 -7 -33 -16z"/>
<path d="M7656 2974 c-31 -30 -14 -85 30 -98 47 -14 87 59 54 99 -16 20 -64
19 -84 -1z"/>
<path d="M9333 2980 c-27 -11 -39 -53 -24 -86 8 -18 18 -24 45 -24 35 0 49 11
60 47 5 17 1 29 -18 48 -27 27 -30 28 -63 15z"/>
<path d="M5836 2958 c-9 -12 -16 -29 -16 -38 0 -26 30 -60 54 -60 53 0 83 63
47 99 -27 27 -66 27 -85 -1z"/>
<path d="M8143 2920 c-28 -11 -39 -53 -24 -86 9 -21 17 -25 48 -22 48 4 70 41
52 82 -7 14 -16 26 -20 26 -4 0 -13 2 -21 4 -7 3 -23 1 -35 -4z"/>
<path d="M11044 2895 c-34 -52 15 -112 71 -87 54 25 35 112 -25 112 -20 0 -35
-8 -46 -25z"/>
<path d="M5183 2898 c-37 -49 -10 -107 50 -108 16 0 47 41 47 63 0 45 -72 78
-97 45z"/>
<path d="M8465 2894 c-24 -25 -16 -75 16 -93 24 -13 29 -13 53 2 19 13 26 26
26 50 0 18 -5 38 -12 45 -17 17 -64 15 -83 -4z"/>
<path d="M4340 2872 c-25 -20 -30 -63 -10 -87 16 -20 64 -19 84 1 49 48 -20
129 -74 86z"/>
<path d="M9868 2859 c-23 -13 -24 -72 -2 -93 33 -33 94 -5 94 43 0 49 -49 75
-92 50z"/>
<path d="M6203 2839 c-27 -10 -39 -52 -24 -85 16 -35 74 -34 98 2 15 23 15 29
2 52 -17 30 -46 42 -76 31z"/>
<path d="M11506 2744 c-29 -28 -18 -80 20 -95 55 -20 101 38 69 87 -18 28 -65
33 -89 8z"/>
<path d="M3712 2738 c-30 -30 -4 -108 36 -108 52 0 82 69 46 104 -18 19 -65
21 -82 4z"/>
<path d="M7200 2720 c-24 -24 -25 -48 -4 -78 21 -31 69 -30 89 2 40 61 -34
127 -85 76z"/>
<path d="M4061 2666 c-20 -24 -9 -79 18 -92 50 -25 98 27 73 81 -9 20 -19 25
-46 25 -18 0 -39 -6 -45 -14z"/>
<path d="M5676 2624 c-31 -30 -14 -85 30 -98 47 -14 87 59 54 99 -16 20 -64
19 -84 -1z"/>
<path d="M4777 2612 c-48 -53 11 -125 74 -92 27 15 27 85 0 100 -29 15 -56 12
-74 -8z"/>
<path d="M7958 2619 c-23 -13 -24 -72 -2 -93 35 -35 94 -6 94 46 0 46 -50 72
-92 47z"/>
<path d="M9484 2605 c-32 -49 15 -106 71 -85 38 14 47 66 17 93 -28 25 -69 21
-88 -8z"/>
<path d="M11922 2604 c-15 -10 -22 -25 -22 -48 0 -41 15 -56 57 -56 35 0 53
21 53 63 0 43 -52 67 -88 41z"/>
<path d="M10262 2588 c-7 -7 -12 -27 -12 -45 0 -24 7 -37 26 -50 24 -15 29
-15 53 -2 29 16 39 56 21 89 -12 23 -68 28 -88 8z"/>
<path d="M6377 2572 c-49 -54 18 -132 77 -89 24 18 25 76 1 93 -26 19 -59 17
-78 -4z"/>
<path d="M6802 2564 c-15 -10 -22 -25 -22 -48 0 -40 15 -56 55 -56 39 0 55 16
55 56 0 49 -48 76 -88 48z"/>
<path d="M10790 2513 c-40 -14 -53 -69 -22 -96 49 -44 117 3 92 63 -7 17 -16
30 -20 30 -5 0 -14 2 -22 4 -7 3 -20 2 -28 -1z"/>
<path d="M3550 2370 c-38 -38 -13 -100 40 -100 60 0 78 90 23 111 -34 13 -40
12 -63 -11z"/>
<path d="M8339 2380 c-47 -27 -24 -110 31 -110 53 0 78 62 40 100 -22 22 -46
25 -71 10z"/>
<path d="M11310 2330 c-22 -22 -26 -51 -10 -81 13 -23 72 -26 90 -4 20 24 15
67 -10 87 -29 23 -45 23 -70 -2z"/>
<path d="M8936 2314 c-48 -47 14 -126 70 -89 27 17 33 72 12 93 -17 17 -64 15
-82 -4z"/>
<path d="M6086 2307 c-12 -9 -19 -26 -19 -47 0 -62 73 -81 103 -27 13 24 13
30 0 55 -18 31 -56 40 -84 19z"/>
<path d="M7648 2309 c-23 -13 -24 -72 -2 -93 35 -35 94 -6 94 46 0 46 -50 72
-92 47z"/>
<path d="M4360 2290 c-39 -39 -19 -100 33 -100 42 0 57 15 57 56 0 23 -7 38
-22 48 -30 21 -44 20 -68 -4z"/>
<path d="M9727 2242 c-23 -25 -21 -58 3 -82 51 -51 125 15 85 76 -19 29 -64
32 -88 6z"/>
<path d="M5072 2219 c-26 -10 -38 -52 -23 -85 8 -18 18 -24 45 -24 38 0 59 19
59 55 0 45 -38 70 -81 54z"/>
<path d="M3992 2158 c-30 -30 -4 -108 36 -108 52 0 82 69 46 104 -18 19 -65
21 -82 4z"/>
<path d="M7226 2154 c-36 -35 -6 -104 45 -104 39 0 66 79 37 108 -17 17 -64
15 -82 -4z"/>
<path d="M11871 2126 c-20 -24 -9 -79 18 -92 50 -25 98 27 73 81 -9 20 -19 25
-46 25 -18 0 -39 -6 -45 -14z"/>
<path d="M10810 2100 c-24 -24 -25 -48 -4 -78 21 -31 69 -30 89 2 40 61 -34
127 -85 76z"/>
<path d="M5552 2088 c-17 -17 -15 -73 3 -88 8 -7 26 -12 40 -12 36 0 55 20 55
56 0 40 -16 56 -55 56 -17 0 -36 -5 -43 -12z"/>
<path d="M6574 2065 c-34 -52 15 -112 71 -87 54 25 35 112 -25 112 -20 0 -35
-8 -46 -25z"/>
<path d="M10404 1990 c-29 -12 -39 -56 -19 -86 29 -45 105 -23 105 30 0 44
-44 73 -86 56z"/>
<path d="M5853 1888 c-37 -49 -10 -107 50 -108 4 0 16 9 27 20 24 24 26 63 4
84 -19 19 -68 21 -81 4z"/>
<path d="M8090 1870 c-39 -39 -14 -100 42 -100 33 0 51 23 51 62 0 54 -55 76
-93 38z"/>
<path d="M8604 1822 c-19 -12 -25 -48 -13 -76 9 -20 19 -26 43 -26 17 0 36 4
42 8 19 12 25 48 13 76 -9 20 -19 26 -43 26 -17 0 -36 -4 -42 -8z"/>
<path d="M4787 1802 c-23 -25 -21 -58 3 -82 23 -23 49 -25 75 -6 21 15 25 67
5 90 -17 22 -63 20 -83 -2z"/>
<path d="M11114 1795 c-21 -32 -11 -72 21 -87 55 -25 104 37 70 88 -21 33 -69
33 -91 -1z"/>
<path d="M3622 1754 c-45 -31 -20 -104 37 -104 36 0 51 17 51 56 0 32 -28 64
-55 64 -6 0 -21 -7 -33 -16z"/>
<path d="M10009 1760 c-47 -27 -24 -110 31 -110 53 0 78 62 40 100 -22 22 -46
25 -71 10z"/>
<path d="M7531 1736 c-7 -8 -11 -30 -9 -48 7 -74 108 -69 108 5 0 18 -5 38
-12 45 -17 17 -73 15 -87 -2z"/>
<path d="M4312 1714 c-25 -17 -31 -71 -10 -92 17 -17 64 -15 82 4 33 33 7 104
-39 104 -6 0 -21 -7 -33 -16z"/>
<path d="M11684 1680 c-29 -12 -39 -56 -19 -86 19 -29 64 -32 88 -6 44 48 -8
116 -69 92z"/>
<path d="M6910 1650 c-31 -58 24 -119 76 -86 27 18 34 72 12 94 -20 20 -76 15
-88 -8z"/>
<path d="M10716 1454 c-35 -34 -8 -104 41 -104 45 0 71 71 37 104 -8 9 -26 16
-39 16 -13 0 -31 -7 -39 -16z"/>
<path d="M6246 1444 c-19 -18 -21 -75 -4 -92 17 -17 64 -15 82 4 24 23 20 70
-6 88 -29 20 -52 20 -72 0z"/>
<path d="M8236 1414 c-22 -21 -20 -67 2 -87 41 -37 92 -10 92 48 0 51 -59 75
-94 39z"/>
<path d="M5216 1384 c-29 -28 -18 -80 20 -95 55 -20 101 38 69 87 -18 28 -65
33 -89 8z"/>
<path d="M3999 1336 c-27 -58 27 -114 77 -81 17 11 24 25 24 48 0 42 -15 57
-57 57 -26 0 -36 -6 -44 -24z"/>
<path d="M8826 1344 c-29 -28 -18 -80 20 -95 56 -21 102 37 69 87 -18 28 -65
33 -89 8z"/>
<path d="M5685 1256 c-22 -32 -10 -75 23 -87 57 -22 101 35 68 86 -22 34 -70
34 -91 1z"/>
<path d="M7750 1224 c-32 -38 -6 -104 42 -104 25 0 58 36 58 63 0 48 -71 77
-100 41z"/>
<path d="M4672 1214 c-41 -28 -18 -104 32 -104 36 0 56 20 56 55 0 58 -42 81
-88 49z"/>
<path d="M7147 1212 c-35 -39 -11 -102 38 -102 32 0 55 25 55 59 0 53 -60 80
-93 43z"/>
<path d="M10313 1209 c-27 -10 -39 -52 -24 -85 8 -18 18 -24 44 -24 41 0 57
15 57 56 0 45 -35 69 -77 53z"/>
<path d="M11365 1196 c-29 -29 -31 -43 -9 -74 10 -14 26 -22 44 -22 72 0 82
94 13 115 -17 4 -29 -1 -48 -19z"/>
<path d="M8538 1109 c-23 -13 -24 -72 -2 -93 33 -33 94 -5 94 43 0 49 -49 75
-92 50z"/>
<path d="M6669 1100 c-47 -27 -24 -110 31 -110 53 0 78 62 40 100 -22 22 -46
25 -71 10z"/>
<path d="M11854 1065 c-21 -32 -11 -73 21 -85 57 -22 104 35 70 86 -21 33 -69
33 -91 -1z"/>
<path d="M9048 1063 c7 -3 16 -2 19 1 4 3 -2 6 -13 5 -11 0 -14 -3 -6 -6z"/>
<path d="M7966 914 c-22 -21 -20 -60 4 -84 24 -24 38 -25 68 -4 25 17 31 71
10 92 -17 17 -64 15 -82 -4z"/>
<path d="M6072 904 c-42 -29 -18 -104 34 -104 34 0 57 25 57 60 0 53 -46 76
-91 44z"/>
<path d="M10943 857 c-50 -22 -30 -107 25 -107 36 0 49 10 57 42 13 51 -32 87
-82 65z"/>
<path d="M3662 824 c-45 -31 -20 -104 37 -104 36 0 51 17 51 56 0 57 -43 80
-88 48z"/>
<path d="M5024 785 c-34 -52 15 -112 71 -87 54 25 35 112 -25 112 -20 0 -35
-8 -46 -25z"/>
<path d="M11542 784 c-45 -31 -20 -104 37 -104 36 0 51 17 51 56 0 32 -28 64
-55 64 -6 0 -21 -7 -33 -16z"/>
<path d="M4270 680 c-31 -58 24 -119 76 -86 27 18 34 72 12 94 -20 20 -76 15
-88 -8z"/>
<path d="M7212 688 c-22 -22 -15 -76 13 -94 51 -33 103 23 76 82 -8 18 -18 24
-44 24 -18 0 -38 -5 -45 -12z"/>
<path d="M5503 608 c-37 -49 -10 -107 50 -108 4 0 16 9 27 20 24 24 26 63 4
84 -19 19 -68 21 -81 4z"/>
<path d="M4856 404 c-22 -21 -20 -67 2 -87 39 -35 92 -10 92 43 0 35 -23 60
-55 60 -13 0 -31 -7 -39 -16z"/>
</g>
</svg>
