<?xml version="1.0" standalone="no"?>
<!DOCTYPE svg PUBLIC "-//W3C//DTD SVG 20010904//EN"
 "http://www.w3.org/TR/2001/REC-SVG-20010904/DTD/svg10.dtd">
<svg version="1.0" xmlns="http://www.w3.org/2000/svg"
 width="1324.000000pt" height="1096.000000pt" viewBox="0 0 1324.000000 1096.000000"
 preserveAspectRatio="xMidYMid meet">

<g transform="translate(0.000000,1096.000000) scale(0.100000,-0.100000)"
fill="#000000" stroke="none">
<path d="M8302 9759 c-98 -38 -211 -166 -277 -315 -38 -86 -82 -233 -90 -299
-4 -33 -31 -170 -60 -305 -72 -332 -117 -561 -112 -566 6 -6 80 245 121 411
49 198 65 292 76 437 15 209 85 380 205 503 78 81 146 110 255 109 70 0 97 -5
153 -28 37 -16 69 -32 72 -36 8 -13 -69 -199 -131 -321 -65 -128 -144 -220
-209 -244 -56 -22 -71 -16 -78 33 -9 51 -41 92 -74 92 -35 0 -90 -36 -108 -70
-20 -38 -19 -104 2 -147 16 -35 65 -73 93 -73 9 0 33 -35 58 -84 24 -46 58
-105 77 -130 28 -35 35 -54 35 -88 0 -48 -30 -121 -63 -156 -19 -21 -196 -111
-592 -302 -154 -75 -243 -166 -328 -336 -70 -140 -139 -380 -160 -562 -7 -56
6 -62 130 -62 116 0 143 6 143 30 0 47 45 151 117 272 44 73 99 168 123 210
24 43 46 76 48 73 3 -2 -38 -93 -91 -202 -95 -198 -103 -219 -153 -453 -6 -30
-35 -57 443 409 l352 343 -15 37 c-47 105 -85 237 -119 407 -4 17 4 25 34 39
49 22 105 79 126 127 8 21 15 62 15 93 0 30 3 55 6 55 3 0 20 -11 37 -24 18
-13 43 -27 57 -31 22 -6 21 -4 -7 14 -65 41 -154 182 -215 339 -15 39 -19 42
-49 40 -27 -3 -36 3 -56 31 -35 52 -31 105 11 147 19 19 43 34 55 34 26 0 51
-38 58 -90 5 -37 8 -40 37 -40 45 1 108 32 161 81 44 41 48 42 105 40 38 -2
60 2 60 9 0 15 -49 32 -71 25 -11 -4 -19 -4 -19 -1 0 3 20 37 45 75 25 39 66
113 92 166 l46 96 47 -113 c26 -62 61 -136 77 -164 l31 -51 -35 -9 c-54 -14
-44 -29 24 -34 34 -3 66 -9 71 -15 13 -13 32 -160 32 -242 0 -48 -3 -63 -14
-63 -21 0 -46 -40 -46 -73 0 -62 -68 -154 -156 -213 -30 -20 -67 -53 -84 -74
-56 -71 -120 -236 -120 -312 0 -19 -17 -46 -56 -90 -31 -35 -75 -90 -97 -123
l-40 -60 36 34 c20 19 60 68 89 108 l53 74 7 -233 c9 -316 46 -548 135 -853
20 -66 37 -127 40 -135 12 -44 -284 -379 -410 -464 l-57 -39 -263 -13 c-144
-7 -311 -16 -371 -19 -103 -7 -108 -6 -102 11 25 80 49 556 27 524 -6 -8 -11
-40 -11 -70 0 -118 -42 -400 -69 -473 -10 -26 -13 -27 -93 -28 -75 -1 -79 -2
-43 -11 66 -15 1178 -22 1445 -9 l235 12 32 -38 c17 -21 30 -39 28 -41 -4 -4
-1249 15 -1578 23 l-218 6 26 -51 c31 -62 47 -134 32 -149 -8 -8 250 -11 871
-11 485 0 882 -3 882 -7 0 -5 -66 -93 -146 -197 l-147 -189 -926 7 c-509 5
-928 10 -930 12 -8 8 83 94 99 94 27 0 104 55 138 98 18 22 44 67 58 99 14 32
29 65 33 73 6 11 -7 32 -48 75 -31 34 -80 87 -109 118 -44 47 -58 57 -86 57
-18 0 -45 -9 -58 -20 -22 -17 -27 -31 -33 -97 -15 -175 -51 -292 -113 -363
-28 -33 -33 -35 -93 -35 l-64 0 0 150 c1 160 11 212 60 303 l24 42 -102 0
-102 0 -2 913 c-1 501 -6 1049 -10 1217 -8 293 -9 306 -31 342 -13 20 -40 47
-60 60 l-37 23 -865 6 c-476 4 -1157 10 -1515 14 -571 6 -654 5 -685 -8 -44
-19 -83 -55 -107 -98 -17 -33 -18 -85 -17 -1226 l2 -1193 -209 0 -208 0 -836
-497 -835 -498 0 -76 0 -76 837 -7 c460 -3 838 -7 839 -9 1 -1 -6 -360 -17
-797 -29 -1199 -33 -1628 -20 -1935 18 -430 55 -881 72 -899 6 -6 9 -4 9 6 0
9 7 78 15 154 22 212 44 576 55 919 8 238 7 435 -4 850 -9 297 -20 776 -26
1065 -5 289 -12 551 -15 583 l-5 57 193 0 c105 0 725 -5 1377 -10 652 -5 1244
-10 1315 -10 298 0 4717 -31 4790 -33 l80 -2 -3 -70 c-16 -432 -62 -2368 -69
-2890 -7 -526 9 -939 53 -1410 9 -93 20 -174 25 -179 6 -6 9 -2 9 10 0 10 7
82 15 159 44 424 68 1094 55 1558 -5 177 -16 633 -25 1012 -8 380 -22 915 -30
1190 -8 275 -15 528 -15 563 l0 62 83 0 82 0 652 405 c359 223 657 405 662
405 6 0 8 -27 5 -67 -4 -71 -27 -949 -44 -1703 -5 -245 -15 -625 -21 -845 -13
-427 -4 -847 27 -1285 14 -214 42 -491 49 -498 16 -16 57 492 75 918 13 311
13 631 0 1041 -5 178 -17 637 -25 1019 -9 382 -20 823 -25 980 -5 157 -10 326
-10 375 l0 90 95 59 95 59 0 78 0 79 -1346 0 -1345 0 57 72 c72 93 136 221
185 371 47 143 50 176 5 52 -98 -269 -235 -459 -383 -532 -49 -23 -71 -28
-138 -28 -147 0 -243 68 -372 263 -200 304 -366 744 -413 1097 -33 251 -31
560 5 700 21 82 75 191 119 242 20 22 60 54 89 71 82 46 141 126 162 217 10
45 14 50 41 53 16 2 32 10 37 17 4 8 14 12 21 9 7 -3 20 1 28 9 8 8 24 18 36
21 26 9 27 2 11 -93 -17 -110 -44 -154 -186 -315 -153 -174 -143 -132 -86
-359 87 -349 196 -598 445 -1013 l90 -150 271 -17 c150 -10 293 -20 318 -22
l47 -5 7 192 c16 462 -41 901 -145 1108 -79 156 -111 176 -370 230 -107 22
-198 40 -201 40 -3 0 -9 -87 -12 -192 -7 -190 -19 -290 -51 -418 -24 -94 -116
-369 -126 -375 -8 -5 -60 110 -110 245 -44 119 -95 299 -125 440 -22 105 -24
125 -12 139 77 90 210 236 215 235 4 0 32 -12 62 -26 30 -14 71 -28 90 -31 46
-9 26 4 -64 39 -39 15 -72 29 -74 29 -1 1 11 31 27 66 44 95 67 269 39 297 -7
7 -27 12 -45 12 -22 0 -36 6 -43 20 -7 12 -10 105 -10 252 1 257 -4 294 -60
381 -32 50 -100 101 -160 117 -19 5 -63 10 -97 10 -40 0 -89 9 -137 25 -95 32
-197 33 -274 4z m542 -117 c105 -57 135 -132 147 -377 5 -98 16 -207 24 -242
14 -60 14 -64 -5 -83 -11 -11 -24 -20 -30 -20 -5 0 -18 -8 -28 -18 -18 -18
-19 -14 -14 133 l5 151 -42 48 c-23 26 -55 74 -70 105 -27 52 -131 321 -131
336 0 15 97 -8 144 -33z m-2477 -818 c15 -11 39 -36 52 -55 l23 -34 -8 -440
c-4 -242 -8 -804 -9 -1250 0 -591 -3 -815 -12 -830 -6 -11 -23 -31 -37 -44
-24 -23 -38 -25 -154 -32 -70 -4 -329 -10 -576 -14 -247 -3 -454 -9 -461 -11
-14 -6 -17 27 -35 394 -11 242 -23 287 -91 346 -56 47 -97 56 -268 56 -165 0
-202 -8 -254 -58 -62 -59 -62 -56 -62 -412 l0 -325 -130 3 c-71 2 -331 7 -576
12 -492 9 -490 9 -529 73 -20 31 -20 52 -14 1282 7 1365 3 1283 64 1318 24 15
131 18 941 27 503 6 961 12 1019 13 58 2 326 3 597 3 483 -1 492 -1 520 -22z
m2938 -1451 c7 -65 16 -165 19 -223 5 -101 5 -103 -9 -62 -8 24 -19 77 -25
118 -11 80 -14 301 -4 291 3 -3 12 -59 19 -124z m-2035 -58 c24 -28 -9 -72
-45 -59 -16 7 -18 17 -9 52 7 25 36 29 54 7z m131 -6 c9 -18 7 -25 -9 -41 -35
-35 -85 -1 -62 43 14 26 56 25 71 -2z m2045 -215 c16 -24 16 -26 -5 -47 -16
-17 -25 -19 -38 -11 -32 20 -39 41 -19 63 25 28 42 26 62 -5z m169 -24 c10
-17 -5 -49 -26 -55 -26 -8 -49 11 -49 41 0 41 53 50 75 14z m136 10 c25 -14
25 -56 -1 -70 -44 -23 -80 29 -44 64 18 19 20 19 45 6z m167 -41 c6 -49 -58
-65 -73 -18 -9 27 13 51 44 47 20 -2 27 -9 29 -29z m-5062 -178 c101 -6 115
-10 149 -35 74 -57 77 -65 95 -371 24 -372 58 -703 79 -751 11 -24 22 -44 25
-44 3 0 -2 17 -11 38 -10 23 -18 78 -21 150 l-5 112 227 0 c124 0 226 -3 226
-8 0 -18 -356 -360 -375 -360 -11 0 -152 4 -314 10 -217 7 -302 13 -322 23
-38 20 -77 70 -88 113 -14 52 -31 462 -31 745 0 261 3 280 59 332 57 55 94 60
307 46z m7154 -765 c-12 -11 -577 -358 -1157 -711 l-112 -68 -3 -66 -3 -66 -9
63 -9 62 -1791 0 c-1737 0 -4191 12 -5483 26 -625 7 -633 7 -633 27 l0 20
3103 -6 c1706 -4 3486 -11 3955 -16 l853 -9 217 128 c473 278 1076 630 1081
630 3 0 -1 -6 -9 -14z m-4878 -113 c-23 -33 -89 -95 -77 -73 14 25 89 109 93
105 2 -2 -5 -16 -16 -32z m-4382 -624 c0 -22 14 -22 -1065 -1 -341 6 -362 8
-205 12 96 3 421 7 723 8 546 2 547 2 547 -19z"/>
<path d="M4693 7866 c-80 -26 -160 -93 -196 -163 -64 -124 -31 -289 78 -399
149 -150 398 -118 486 62 27 57 20 66 -14 16 -51 -78 -167 -132 -282 -132
-118 0 -229 79 -260 184 -33 111 -5 217 79 301 61 61 121 85 215 85 109 0 222
-68 275 -165 15 -26 16 -27 10 -5 -12 47 -52 115 -86 147 -71 68 -211 100
-305 69z"/>
<path d="M3530 6371 l-65 -6 50 -7 c162 -25 911 -20 886 5 -12 12 -758 19
-871 8z"/>
<path d="M5337 6370 c-82 -5 -151 -11 -153 -13 -20 -20 799 -31 921 -12 l60 9
-80 7 c-143 12 -596 18 -748 9z"/>
<path d="M8521 9121 c-14 -25 -5 -48 20 -56 27 -9 51 13 47 44 -4 34 -51 43
-67 12z"/>
<path d="M8787 9133 c-12 -12 -7 -50 8 -63 19 -15 52 -4 60 21 4 11 1 26 -5
34 -13 15 -51 20 -63 8z"/>
<path d="M8756 8991 c-4 -5 -27 -13 -51 -17 -48 -7 -52 -24 -6 -24 30 0 81 33
70 45 -4 3 -10 2 -13 -4z"/>
<path d="M8626 8847 c-17 -13 -16 -14 15 -13 19 1 48 -3 64 -7 27 -7 28 -7 15
7 -22 23 -72 30 -94 13z"/>
<path d="M10033 8090 c113 -18 213 -84 257 -171 50 -96 68 -254 51 -434 -23
-236 -103 -768 -151 -1000 -11 -54 -19 -100 -17 -102 9 -8 82 267 118 442 95
466 126 815 85 970 -38 144 -115 246 -214 280 -26 9 -78 18 -117 20 l-70 4 58
-9z"/>
<path d="M7147 7077 c-25 -68 -61 -175 -80 -238 -22 -72 -61 -167 -108 -259
-66 -130 -77 -145 -104 -151 -43 -8 -86 -33 -119 -68 -34 -36 -30 -39 16 -11
89 52 275 49 390 -8 46 -22 55 -24 47 -10 -28 51 -156 108 -246 108 l-46 0 26
33 c15 17 57 78 94 134 l68 102 80 1 c71 2 76 3 45 12 -19 5 -54 8 -77 6 -24
-2 -43 -2 -43 -2 0 1 15 58 34 126 38 138 80 337 73 344 -3 3 -25 -51 -50
-119z"/>
<path d="M7502 7053 c20 -24 72 -43 118 -43 37 0 110 22 110 34 0 2 -33 2 -72
-1 -50 -3 -89 0 -121 10 -44 14 -47 14 -35 0z"/>
<path d="M7250 6010 c0 -13 7 -20 20 -20 13 0 20 7 20 20 0 13 -7 20 -20 20
-13 0 -20 -7 -20 -20z"/>
<path d="M7410 6005 c0 -18 5 -25 20 -25 15 0 20 7 20 25 0 18 -5 25 -20 25
-15 0 -20 -7 -20 -25z"/>
<path d="M7560 6005 c0 -23 3 -25 50 -25 47 0 50 2 50 25 0 23 -3 25 -50 25
-47 0 -50 -2 -50 -25z"/>
<path d="M7770 6000 c0 -17 7 -20 45 -20 38 0 45 3 45 20 0 17 -7 20 -45 20
-38 0 -45 -3 -45 -20z"/>
<path d="M7970 5995 c0 -23 3 -25 50 -25 47 0 50 2 50 25 0 23 -3 25 -50 25
-47 0 -50 -2 -50 -25z"/>
<path d="M8180 5996 c0 -24 3 -26 51 -26 47 0 50 2 47 23 -3 19 -10 22 -50 25
-46 3 -48 2 -48 -22z"/>
<path d="M8386 5994 c-3 -9 -6 -18 -6 -20 0 -2 23 -4 50 -4 43 0 50 3 50 20 0
17 -7 20 -44 20 -31 0 -46 -5 -50 -16z"/>
<path d="M8590 5985 c0 -20 5 -25 25 -25 20 0 25 5 25 25 0 20 -5 25 -25 25
-20 0 -25 -5 -25 -25z"/>
<path d="M8700 5985 c0 -18 5 -25 20 -25 15 0 20 7 20 25 0 18 -5 25 -20 25
-15 0 -20 -7 -20 -25z"/>
<path d="M7180 5915 c0 -18 5 -25 20 -25 15 0 20 7 20 25 0 18 -5 25 -20 25
-15 0 -20 -7 -20 -25z"/>
<path d="M7340 5915 c0 -18 5 -25 20 -25 15 0 20 7 20 25 0 18 -5 25 -20 25
-15 0 -20 -7 -20 -25z"/>
<path d="M7490 5916 c0 -25 3 -26 50 -26 43 0 50 3 50 20 0 16 -7 20 -34 20
-19 0 -41 3 -50 6 -12 5 -16 0 -16 -20z"/>
<path d="M7700 5911 c0 -13 10 -20 31 -25 51 -10 59 -8 59 19 0 23 -4 25 -45
25 -37 0 -45 -3 -45 -19z"/>
<path d="M7900 5905 c0 -23 3 -25 50 -25 47 0 50 2 50 25 0 23 -3 25 -50 25
-47 0 -50 -2 -50 -25z"/>
<path d="M8110 5900 c0 -17 7 -20 50 -20 43 0 50 3 50 20 0 17 -7 20 -50 20
-43 0 -50 -3 -50 -20z"/>
<path d="M8320 5895 c0 -23 4 -25 45 -25 41 0 45 2 45 25 0 23 -4 25 -45 25
-41 0 -45 -2 -45 -25z"/>
<path d="M8520 5895 c0 -20 5 -25 25 -25 20 0 25 5 25 25 0 20 -5 25 -25 25
-20 0 -25 -5 -25 -25z"/>
<path d="M8630 5890 c0 -13 7 -20 20 -20 13 0 20 7 20 20 0 13 -7 20 -20 20
-13 0 -20 -7 -20 -20z"/>
<path d="M7120 5825 c0 -20 5 -25 25 -25 20 0 25 5 25 25 0 20 -5 25 -25 25
-20 0 -25 -5 -25 -25z"/>
<path d="M7280 5820 c0 -13 7 -20 19 -20 10 0 21 9 24 20 4 16 0 20 -19 20
-17 0 -24 -6 -24 -20z"/>
<path d="M7430 5820 c0 -11 6 -20 13 -20 6 0 29 -3 50 -6 35 -6 37 -5 37 20 0
25 -3 26 -50 26 -43 0 -50 -3 -50 -20z"/>
<path d="M7640 5815 c0 -23 3 -25 50 -25 47 0 50 2 50 25 0 23 -3 25 -50 25
-47 0 -50 -2 -50 -25z"/>
<path d="M7850 5810 c0 -17 7 -20 45 -20 38 0 45 3 45 20 0 17 -7 20 -45 20
-38 0 -45 -3 -45 -20z"/>
<path d="M8050 5805 c0 -23 3 -25 50 -25 47 0 50 2 50 25 0 23 -3 25 -50 25
-47 0 -50 -2 -50 -25z"/>
<path d="M8260 5806 c0 -24 3 -26 51 -26 47 0 50 2 47 23 -3 19 -10 22 -50 25
-46 3 -48 2 -48 -22z"/>
<path d="M8467 5813 c-16 -15 -6 -33 18 -33 18 0 25 5 25 20 0 20 -28 28 -43
13z"/>
<path d="M8570 5801 c0 -20 25 -35 41 -25 5 3 9 14 9 25 0 14 -7 19 -25 19
-18 0 -25 -5 -25 -19z"/>
<path d="M1267 4990 c-10 -232 -25 -758 -42 -1515 -8 -357 -20 -843 -26 -1080
-16 -551 -1 -1033 47 -1565 9 -96 19 -191 23 -210 l7 -35 7 35 c3 19 13 109
22 200 48 515 62 1019 47 1622 -7 260 -17 664 -22 898 -19 833 -42 1636 -49
1725 l-7 90 -7 -165z"/>
<path d="M5582 5073 c-75 -74 -180 -211 -259 -338 -229 -369 -529 -995 -777
-1624 l-77 -193 25 -33 c29 -37 239 -236 336 -317 161 -135 328 -240 452 -284
56 -20 168 -20 206 0 16 8 43 31 61 51 38 44 72 51 165 37 135 -21 252 -104
316 -224 l33 -61 126 6 c69 4 138 9 154 13 25 6 27 4 27 -25 0 -52 -30 -179
-54 -236 -13 -28 -51 -95 -85 -148 -34 -53 -94 -158 -133 -233 -39 -75 -86
-159 -105 -186 -18 -28 -33 -60 -33 -72 0 -11 -36 -97 -80 -189 l-79 -168 10
-57 c31 -168 140 -244 327 -228 121 10 202 68 298 213 68 101 117 212 172 389
56 175 109 291 126 273 3 -3 11 -40 18 -82 6 -42 16 -77 22 -77 6 0 55 7 110
17 l98 17 52 70 c28 39 66 91 84 116 l32 45 -69 240 c-39 138 -79 301 -92 382
-13 78 -25 140 -27 138 -2 -2 4 -61 14 -131 14 -105 16 -141 6 -204 -20 -140
-88 -275 -173 -341 -73 -57 -142 -132 -233 -253 l-87 -116 -65 50 c-102 78
-197 98 -294 61 l-51 -19 37 66 c21 37 69 119 106 182 131 220 167 318 168
455 l0 61 86 28 c119 39 287 125 383 196 45 33 81 58 81 55 0 -8 216 210 254
258 l39 48 -18 147 c-9 81 -53 433 -96 782 -43 349 -77 636 -75 638 2 2 48
-10 103 -27 223 -68 476 -120 691 -142 l122 -13 0 -957 0 -958 -47 -6 c-252
-31 -375 -58 -477 -104 -118 -53 -148 -132 -74 -194 64 -54 242 -107 463 -137
115 -16 536 -24 700 -14 139 9 138 9 -165 15 -225 5 -346 12 -460 28 -326 44
-530 116 -530 187 0 64 257 153 523 180 l67 7 0 -90 0 -90 73 -21 c231 -68
472 -67 606 3 l31 16 0 99 0 99 28 4 27 4 -27 2 -28 1 0 964 0 964 63 7 c94 9
212 34 297 62 108 35 289 127 356 182 122 98 235 261 321 461 41 96 99 278 91
286 -3 2 -17 -29 -33 -68 -66 -172 -175 -364 -279 -495 -164 -207 -436 -344
-801 -403 -185 -31 -513 -28 -745 5 -425 62 -889 147 -900 166 -8 12 -23 139
-17 145 2 2 48 -1 103 -6 169 -18 615 -24 784 -11 565 43 941 167 1160 382 53
52 130 156 130 175 0 3 -20 -20 -43 -52 -185 -249 -503 -383 -1057 -446 -169
-19 -760 -16 -965 5 -102 11 -163 13 -169 7 -11 -11 4 -140 134 -1115 l88
-660 -68 -81 c-136 -161 -328 -317 -490 -399 -70 -35 -219 -95 -236 -95 -2 0
-4 17 -5 38 0 20 -4 55 -8 77 -8 35 -9 29 -10 -41 l-1 -81 -57 -12 c-72 -14
-253 -15 -253 -1 0 19 -67 116 -106 154 -72 70 -198 115 -323 116 -51 0 -55
-2 -92 -44 -74 -83 -166 -87 -321 -13 -160 76 -328 209 -568 451 l-134 135 43
108 c186 460 386 912 551 1248 202 411 347 649 479 788 40 42 71 77 67 77 -3
0 -37 -30 -74 -67z m624 -3937 c29 -13 70 -41 92 -61 l41 -37 -75 -112 c-61
-92 -84 -118 -128 -144 -102 -63 -188 -70 -254 -22 -23 16 -48 43 -57 60 -16
30 -15 32 60 180 85 165 74 157 195 159 60 1 85 -4 126 -23z"/>
<path d="M6122 3958 c-149 -270 -361 -862 -503 -1402 -15 -60 -26 -112 -24
-115 3 -2 5 1 5 7 0 7 12 9 34 5 28 -4 34 -2 39 16 5 21 -11 45 -34 53 -7 2 6
50 36 133 52 144 305 865 305 871 0 2 3 4 8 4 4 0 5 -57 4 -127 -7 -251 30
-1005 58 -1183 6 -34 7 112 5 375 -3 401 -17 683 -45 909 l-10 79 56 156 c31
86 71 189 90 230 19 41 33 76 31 78 -2 2 -27 -39 -55 -89z"/>
<path d="M4583 2964 c-8 -22 10 -49 32 -49 10 0 22 7 28 16 15 24 1 49 -28 49
-15 0 -28 -7 -32 -16z"/>
<path d="M4722 2838 c-18 -18 -14 -46 7 -58 15 -7 23 -6 35 6 20 19 20 29 0
48 -19 19 -26 20 -42 4z"/>
<path d="M7081 2761 c-20 -13 -6 -61 18 -61 28 0 47 28 34 48 -12 20 -33 25
-52 13z"/>
<path d="M4860 2690 c-14 -27 4 -52 34 -48 31 4 30 62 -1 66 -14 2 -26 -4 -33
-18z"/>
<path d="M4651 2545 c-56 -107 -155 -232 -223 -283 -29 -21 -93 -61 -143 -87
-49 -26 -154 -90 -233 -141 -78 -52 -154 -97 -168 -100 -14 -4 -51 -30 -82
-59 -31 -28 -114 -90 -183 -138 -141 -97 -156 -117 -166 -234 -8 -87 13 -139
82 -202 78 -70 172 -106 259 -98 137 13 321 111 489 263 183 165 233 207 270
225 46 24 47 17 12 -76 -14 -37 -24 -69 -22 -71 2 -3 50 -20 106 -39 l101 -34
128 59 127 59 57 233 c31 128 72 278 92 332 20 55 34 101 32 103 -2 2 -18 -31
-36 -74 -45 -107 -87 -170 -156 -231 -75 -67 -162 -110 -250 -124 -88 -13
-190 -47 -329 -110 -60 -27 -116 -52 -122 -55 -8 -3 -13 2 -13 14 0 10 -15 50
-34 89 -51 107 -139 174 -230 174 -14 0 -26 4 -26 8 0 4 80 54 178 111 309
181 332 198 423 338 42 65 115 220 107 228 -2 2 -23 -34 -47 -80z m-787 -751
c90 -45 161 -132 180 -219 7 -30 6 -31 -114 -90 -119 -59 -123 -60 -204 -60
-68 0 -90 5 -132 26 -60 31 -94 84 -94 149 l0 46 132 87 c74 49 142 87 156 87
13 0 47 -12 76 -26z"/>
<path d="M6961 2616 c-19 -23 -4 -56 25 -56 28 0 42 25 27 49 -14 22 -37 25
-52 7z"/>
<path d="M5026 2564 c-10 -9 -15 -23 -12 -31 3 -8 6 -17 6 -19 0 -2 11 -4 25
-4 29 0 43 25 28 48 -14 23 -29 25 -47 6z"/>
<path d="M6931 2484 c0 -11 3 -14 6 -6 3 7 2 16 -1 19 -3 4 -6 -2 -5 -13z"/>
<path d="M6822 2481 c-20 -12 -11 -55 12 -59 27 -6 48 25 35 49 -10 20 -26 24
-47 10z"/>
<path d="M5797 2464 c-13 -13 -7 -52 8 -58 27 -10 46 5 43 33 -3 26 -35 41
-51 25z"/>
<path d="M5204 2446 c-10 -25 0 -51 20 -54 27 -6 48 25 35 49 -12 22 -47 25
-55 5z"/>
<path d="M5410 2415 c-20 -25 -8 -50 25 -50 21 0 31 5 33 18 4 21 -14 47 -33
47 -7 0 -18 -7 -25 -15z"/>
<path d="M5957 2374 c-13 -13 -7 -52 8 -58 27 -10 46 5 43 33 -3 26 -35 41
-51 25z"/>
<path d="M6644 2356 c-10 -25 0 -51 20 -54 27 -6 48 25 35 49 -12 22 -47 25
-55 5z"/>
<path d="M6952 2345 c0 -16 2 -22 5 -12 2 9 2 23 0 30 -3 6 -5 -1 -5 -18z"/>
<path d="M6489 2284 c-15 -19 -2 -47 26 -52 25 -5 38 13 31 42 -7 30 -36 35
-57 10z"/>
<path d="M6300 2235 c-19 -23 -8 -50 22 -53 19 -2 28 2 33 18 12 39 -29 66
-55 35z"/>
<path d="M6104 2206 c-11 -29 0 -51 26 -51 21 0 25 5 25 30 0 24 -5 31 -23 33
-13 2 -24 -3 -28 -12z"/>
<path d="M8778 2143 c7 -3 16 -2 19 1 4 3 -2 6 -13 5 -11 0 -14 -3 -6 -6z"/>
<path d="M8808 1743 c7 -3 16 -2 19 1 4 3 -2 6 -13 5 -11 0 -14 -3 -6 -6z"/>
<path d="M8698 1733 c12 -2 30 -2 40 0 9 3 -1 5 -23 4 -22 0 -30 -2 -17 -4z"/>
</g>
</svg>
